ply
format ascii 1.0
element vertex 828
property float32 x
property float32 y
property float32 z
element face 1652
property list uint8 int32 vertex_indices
end_header
-0.444965 -0.355984 -0.821755
-0.677069 -0.232198 -0.698328
-0.387005 -0.594571 -0.704778
-0.170592 -0.469144 -0.866488
-0.127792 -0.691302 -0.711175
0.078943 -0.325031 -0.942403
0.351137 -0.647713 -0.676144
0.350265 -0.415961 -0.839221
-0.486887 -0.082422 -0.869567
-0.705382 0.039688 -0.707716
-0.215067 -0.205241 -0.954789
0.041663 -0.044422 -0.998144
0.572984 -0.233854 -0.785495
0.328205 -0.144523 -0.933485
0.751500 -0.045155 -0.658186
-0.252442 0.079851 -0.964312
-0.511906 0.200083 -0.835416
0.004557 0.237791 -0.971306
0.291281 0.141524 -0.946111
0.548666 0.045937 -0.834778
0.718347 0.223116 -0.658936
-0.280887 0.356504 -0.891071
-0.032644 0.491838 -0.870075
-0.058658 0.704177 -0.707597
0.247036 0.415392 -0.875455
0.501874 0.322967 -0.802381
0.437227 0.575419 -0.691176
-0.222411 0.810423 -0.541985
0.187697 0.649321 -0.736989
-0.310143 -0.792956 -0.524436
-0.399095 -0.863737 -0.307704
-0.179442 -0.933157 -0.311478
-0.077561 -0.857740 -0.508200
0.080263 -0.933991 -0.348164
0.311962 -0.826741 -0.468166
0.287827 -0.922177 -0.258351
0.489711 -0.827559 -0.274462
0.382484 -0.921833 -0.062690
0.570419 -0.818883 -0.063662
-0.728041 -0.565934 -0.386878
-0.761594 -0.629284 -0.154839
-0.596086 -0.754205 -0.275420
-0.530110 -0.689441 -0.493613
0.108199 -0.578299 -0.808618
0.123561 -0.783092 -0.609507
0.536112 -0.692932 -0.482109
0.672092 -0.694997 -0.255484
0.824743 -0.531165 -0.194071
0.739132 -0.672525 -0.037330
-0.817953 -0.339979 -0.464077
-0.944916 -0.200004 -0.259097
-0.871322 -0.427597 -0.240746
-0.627482 -0.474398 -0.617425
0.570346 -0.488245 -0.660547
0.727124 -0.530656 -0.435540
0.872495 -0.352197 -0.338688
0.753121 -0.310708 -0.579887
0.928893 -0.358895 -0.091390
-0.846294 -0.112692 -0.520660
-0.940642 0.005737 -0.339352
-0.848692 0.158870 -0.504462
0.884529 -0.130676 -0.447808
0.963316 -0.173647 -0.204618
0.984850 -0.172185 0.020553
-0.825400 0.397053 -0.401328
-0.934977 0.235055 -0.265646
-0.702523 0.313883 -0.638702
0.872926 0.132502 -0.469514
0.958082 0.039187 -0.283802
0.996997 0.027742 -0.072302
-0.887439 0.434574 -0.153619
-0.899068 0.431568 0.073667
-0.510399 0.465104 -0.723306
-0.289038 0.602587 -0.743872
0.654650 0.468511 -0.593238
0.833805 0.356032 -0.421913
0.948565 0.242421 -0.203608
0.720096 0.581681 -0.378298
-0.664595 0.552164 -0.503417
-0.459578 0.693149 -0.555277
-0.761849 0.593459 -0.259601
-0.372988 0.854493 -0.361556
0.053346 0.842401 -0.536204
0.296741 0.784047 -0.545174
0.373182 0.863596 -0.339024
0.534581 0.702189 -0.470269
0.586929 0.776581 -0.228990
-0.588743 0.736837 -0.332345
-0.262906 0.947332 -0.182875
-0.485415 0.861281 -0.150223
-0.107489 0.931780 -0.346745
0.142152 0.930566 -0.337400
0.417672 0.898227 -0.136890
0.214729 0.966957 -0.137423
0.748736 0.640288 -0.171541
-0.374400 0.926973 0.023382
-0.174984 0.984551 -0.006279
-0.009168 0.991371 -0.130766
-0.462599 -0.882041 -0.089471
-0.542303 -0.832979 0.109785
-0.361078 -0.926375 0.107014
-0.271711 -0.957407 -0.097695
-0.171384 -0.980994 0.090988
-0.056112 -0.990178 -0.128062
0.028726 -0.996932 0.072813
0.153396 -0.982644 -0.104306
0.240708 -0.966528 0.088787
0.446837 -0.885884 0.124683
0.305543 -0.917687 0.253958
0.411604 -0.842675 0.347104
-0.605033 -0.753252 0.257966
-0.731400 -0.527053 0.432747
-0.722381 -0.628845 0.287609
-0.633132 -0.771508 -0.062599
0.632785 -0.765426 0.117076
0.533424 -0.805482 0.258180
0.759984 -0.626167 0.174180
0.652980 -0.691474 0.308999
0.742012 -0.563585 0.363029
-0.855213 -0.517721 -0.024013
-0.908536 -0.392679 0.142710
-0.816159 -0.556411 0.155858
-0.717913 -0.690817 0.085869
0.857491 -0.513063 0.038408
0.845669 -0.474333 0.244647
-0.946307 -0.318783 -0.053668
-0.963023 -0.222676 0.151667
0.930867 -0.342041 0.128436
0.890689 -0.320303 0.322613
0.958224 -0.175244 0.226044
-0.992726 -0.118699 -0.020154
-0.978881 -0.047752 0.198774
0.990496 0.000184 0.137540
0.957353 0.146729 0.248888
-0.990219 0.042276 -0.132963
-0.992844 0.089259 0.079333
0.980258 0.193726 0.039546
0.926306 0.319035 0.200435
-0.965682 0.256870 -0.038420
-0.947127 0.268711 0.175342
0.867525 0.453194 -0.204977
0.925177 0.379531 -0.002026
0.840175 0.413645 0.350719
-0.869071 0.409241 0.277917
-0.804056 0.594224 -0.019810
-0.803215 0.562908 0.194884
0.826265 0.563231 0.007473
0.853368 0.487926 0.183555
0.737473 0.652284 0.175096
-0.665943 0.739461 -0.098579
-0.695646 0.707772 0.123030
-0.551335 0.831651 0.066226
0.325539 0.943955 0.054528
0.524817 0.851070 0.015711
0.677835 0.735213 -0.001320
0.754950 0.564188 0.334279
-0.567423 0.780933 0.261102
-0.418412 0.881714 0.217972
-0.243765 0.952298 0.183595
-0.281899 0.892406 0.352341
-0.048231 0.991151 0.123663
0.124035 0.990450 0.060209
0.237649 0.943657 0.230293
0.592176 0.782953 0.190558
0.425654 0.881502 0.204382
-0.154727 0.872654 0.463180
-0.111265 0.944330 0.309615
0.065493 0.960997 0.268693
0.327677 0.870414 0.367433
-0.261442 -0.922796 0.283011
-0.294880 -0.767396 0.569342
-0.223991 -0.853090 0.471239
-0.067637 -0.965174 0.252713
-0.123807 -0.912867 0.389032
0.108827 -0.963297 0.245389
0.033872 -0.906408 0.421044
0.186305 -0.907668 0.376071
0.157206 -0.840289 0.518845
0.273324 -0.766535 0.581135
-0.502940 -0.760767 0.410224
-0.624653 -0.659398 0.418333
-0.438115 -0.856344 0.273368
-0.356650 -0.833121 0.422742
0.526810 -0.737227 0.423045
0.297850 -0.842917 0.448080
0.498465 -0.660744 0.561204
0.404211 -0.759888 0.509101
0.622437 -0.625598 0.470319
-0.635755 -0.553091 0.538429
-0.717193 -0.419221 0.556676
-0.538874 -0.545416 0.641978
0.689838 -0.505927 0.517843
0.573512 -0.556135 0.601497
0.728271 -0.383478 0.567950
-0.826300 -0.470071 0.310260
0.798506 -0.428165 0.423159
0.822834 -0.293338 0.486721
-0.893882 -0.315194 0.318790
-0.843714 -0.243986 0.478139
-0.805513 -0.381052 0.453815
0.898373 -0.173219 0.403634
-0.927917 -0.162575 0.335469
-0.867249 -0.112719 0.484948
0.945222 -0.023135 0.325606
0.873718 -0.040603 0.484735
0.823082 0.073094 0.563200
-0.952044 0.121751 0.280692
-0.923431 -0.004805 0.383733
0.899914 0.106174 0.422944
0.746324 0.162380 0.645472
-0.892857 0.259756 0.367876
-0.879974 0.122441 0.458971
0.888504 0.260005 0.378098
0.824608 0.207192 0.526395
-0.816879 0.239367 0.524797
-0.767094 0.518358 0.377984
-0.810056 0.376174 0.449781
0.738371 0.476973 0.476765
0.796136 0.342665 0.498747
-0.685448 0.656881 0.314116
-0.710055 0.465047 0.528728
0.634914 0.694752 0.337941
0.646311 0.601653 0.469358
0.632021 0.508509 0.584780
-0.650097 0.594259 0.473528
-0.555937 0.713692 0.426120
-0.526814 0.637760 0.561898
-0.431510 0.815103 0.386531
0.488011 0.799396 0.350444
0.525188 0.706527 0.474338
0.536794 0.611244 0.581578
-0.425204 0.735623 0.527314
-0.299745 0.814614 0.496545
-0.180915 0.787330 0.589391
-0.046127 0.824729 0.563644
-0.080023 0.737493 0.670597
0.002905 0.902122 0.431472
0.165397 0.900886 0.401307
0.097565 0.836258 0.539586
0.385937 0.781931 0.489527
0.042568 0.758151 0.650688
0.170912 0.755718 0.632202
-0.343122 -0.667716 0.660623
-0.416311 -0.729131 0.543188
-0.234600 -0.696482 0.678142
-0.165116 -0.779972 0.603640
-0.072450 -0.846873 0.526837
0.046936 -0.814169 0.578728
0.156653 -0.751064 0.641375
0.237896 -0.592181 0.769888
0.257415 -0.679462 0.687073
0.306945 -0.518476 0.798103
-0.464431 -0.505023 0.727500
-0.552034 -0.428768 0.715134
-0.444627 -0.618592 0.647804
-0.530258 -0.653196 0.540520
0.373420 -0.681575 0.629295
0.453875 -0.587615 0.669855
-0.625003 -0.455326 0.634074
0.514134 -0.490220 0.703812
0.623918 -0.446105 0.641651
-0.756697 -0.287868 0.586977
-0.701359 -0.218018 0.678649
-0.655501 -0.344421 0.672081
0.739370 -0.264701 0.619084
0.649211 -0.335116 0.682805
0.651020 -0.227870 0.724050
-0.784747 -0.142924 0.603113
0.817707 -0.166386 0.551063
0.726599 -0.155280 0.669285
-0.756114 -0.016725 0.654226
0.787488 -0.052558 0.614086
-0.838463 -0.000921 0.544958
0.738464 0.046983 0.672654
-0.794230 0.112160 0.597176
0.731198 0.278844 0.622572
0.655155 0.222794 0.721897
-0.735814 0.335063 0.588481
-0.731955 0.210755 0.647938
0.693787 0.395516 0.601852
0.631936 0.322258 0.704845
-0.655922 0.290305 0.696771
-0.642628 0.407348 0.648920
0.590459 0.421122 0.688487
0.535103 0.343295 0.771890
-0.600182 0.525779 0.602774
-0.487193 0.559311 0.670682
0.433047 0.596082 0.676133
0.436586 0.507941 0.742556
0.530175 0.516409 0.672485
-0.405386 0.650849 0.641917
-0.302161 0.727721 0.615727
-0.293003 0.638505 0.711661
-0.193067 0.696554 0.691041
0.243844 0.821997 0.514646
0.419886 0.688350 0.591498
0.297467 0.731201 0.613888
0.330275 0.636070 0.697376
-0.194452 0.605915 0.771399
-0.101141 0.647521 0.755306
0.002154 0.673130 0.739521
0.111582 0.680657 0.724055
0.223413 0.666125 0.711593
-0.123513 -0.693367 0.709920
-0.188966 -0.619855 0.761625
-0.105548 -0.599337 0.793508
-0.045122 -0.757542 0.651225
-0.028715 -0.661505 0.749391
0.056940 -0.715994 0.695781
0.062958 -0.622314 0.780232
0.153599 -0.658816 0.736457
-0.374103 -0.562879 0.737030
-0.293494 -0.512179 0.807177
-0.196418 -0.537115 0.820321
-0.279429 -0.598729 0.750628
0.145157 -0.570026 0.808702
0.215093 -0.509425 0.833199
0.271714 -0.443140 0.854283
0.341347 -0.599074 0.724288
0.359963 -0.440254 0.822559
-0.465365 -0.406904 0.786044
-0.382539 -0.467516 0.796927
0.407131 -0.512591 0.755973
0.396347 -0.360024 0.844566
0.454272 -0.423488 0.783769
-0.549873 -0.339765 0.763020
-0.535839 -0.243518 0.808440
-0.468851 -0.312639 0.826097
0.551931 -0.390641 0.736731
-0.615820 -0.267535 0.741075
0.568025 -0.292929 0.769116
0.565260 -0.201010 0.800047
-0.695714 -0.106884 0.710323
-0.604532 -0.082024 0.792346
-0.618052 -0.172630 0.766949
0.632462 -0.127535 0.764020
-0.663750 -0.004870 0.747939
-0.573327 0.004496 0.819314
0.694984 -0.059143 0.716588
-0.708878 0.090926 0.699446
-0.616909 0.084370 0.782499
0.654354 0.025310 0.755764
-0.647151 0.178935 0.741066
-0.575918 0.245873 0.779657
0.663258 0.124165 0.738019
-0.500627 0.294299 0.814101
0.562988 0.254955 0.786157
0.578617 0.166110 0.798505
-0.571779 0.349112 0.742421
-0.425068 0.327250 0.843934
0.437067 0.365861 0.821656
0.472602 0.284491 0.834094
-0.484401 0.388921 0.783643
-0.543290 0.456118 0.704835
-0.396744 0.411773 0.820389
0.387268 0.445589 0.807139
0.491727 0.427947 0.758331
-0.442514 0.482936 0.755615
-0.376957 0.566246 0.732986
-0.276341 0.551611 0.786995
0.261186 0.571727 0.777760
0.347393 0.540580 0.766219
0.298358 0.470830 0.830242
-0.189312 0.518964 0.833569
-0.112312 0.559203 0.821388
-0.026303 0.587906 0.808502
0.067654 0.600990 0.796388
0.164541 0.597627 0.784709
0.209992 0.513596 0.831939
-0.100041 -0.523117 0.846369
-0.015012 -0.496857 0.867703
-0.018210 -0.573681 0.818877
0.056558 -0.459905 0.886165
0.117184 -0.415774 0.901887
0.062268 -0.536430 0.841644
0.132024 -0.488536 0.862497
-0.317104 -0.421804 0.849427
-0.237937 -0.456385 0.857379
-0.156006 -0.466109 0.870864
0.190650 -0.434006 0.880507
0.237063 -0.374912 0.896238
0.314153 -0.373323 0.872891
-0.393462 -0.373379 0.840104
-0.328688 -0.337607 0.882035
0.342291 -0.302024 0.889729
0.416015 -0.279727 0.865265
-0.460349 -0.222982 0.859278
-0.397057 -0.288298 0.871338
0.481716 -0.333596 0.810348
0.420844 -0.201488 0.884473
0.490732 -0.246112 0.835830
-0.536107 -0.157028 0.829416
0.484568 -0.163539 0.859331
-0.523572 -0.068567 0.849218
-0.469262 -0.131603 0.873198
0.548601 -0.116858 0.827877
-0.489580 0.004710 0.871946
0.597819 -0.034200 0.800901
-0.527338 0.076234 0.846228
0.526144 0.035044 0.849673
-0.557973 0.155492 0.815161
-0.473170 0.134182 0.870692
0.584866 0.074283 0.807721
-0.492504 0.210155 0.844556
-0.424243 0.250585 0.870187
0.507368 0.123077 0.852895
-0.353768 0.215675 0.910128
0.415213 0.228325 0.880605
0.492928 0.202312 0.846222
-0.355386 0.280474 0.891648
-0.350985 0.347909 0.869350
0.346286 0.383593 0.856121
0.387666 0.305645 0.869653
-0.344008 0.485177 0.803904
-0.256660 0.469264 0.844936
-0.242463 0.389668 0.888465
0.193925 0.377398 0.905519
0.273653 0.382901 0.882327
0.311595 0.315254 0.896395
-0.183768 0.436820 0.880578
-0.118373 0.475449 0.871743
-0.045786 0.505379 0.861682
0.034162 0.524016 0.851023
0.121278 0.526013 0.841785
0.157067 0.451697 0.878237
0.230175 0.437691 0.869164
-0.075518 -0.450996 0.889325
-0.058855 -0.381259 0.922593
-0.006822 -0.423331 0.905949
0.053470 -0.389442 0.919497
0.103901 -0.349504 0.931156
0.166481 -0.366457 0.915420
-0.260662 -0.374527 0.889823
-0.193395 -0.398581 0.896511
-0.121811 -0.400665 0.908091
0.204547 -0.313891 0.927164
0.232227 -0.259696 0.937352
0.271062 -0.313277 0.910156
-0.322317 -0.267271 0.908118
-0.265374 -0.302410 0.915492
0.293422 -0.250784 0.922503
0.357082 -0.230736 0.905126
-0.350317 -0.156625 0.923443
-0.375155 -0.223762 0.899549
0.360569 -0.160198 0.918873
0.413301 -0.126718 0.901734
-0.413649 -0.171093 0.894216
0.357127 -0.088349 0.929868
-0.446540 -0.058038 0.892879
-0.397469 -0.105793 0.911497
0.467268 -0.087414 0.879784
-0.413395 0.003712 0.910544
0.522613 -0.041661 0.851552
-0.446194 0.065259 0.892554
0.458193 -0.006465 0.888829
-0.397219 0.114427 0.910562
0.458035 0.069814 0.886189
-0.414479 0.179638 0.892153
-0.345294 0.154771 0.925645
0.400273 0.086646 0.912290
-0.292774 0.193326 0.936434
0.361233 0.181517 0.914638
0.429305 0.150654 0.890506
-0.293298 0.255299 0.921303
-0.287127 0.324956 0.901089
0.341764 0.248383 0.906368
-0.310211 0.408194 0.858573
-0.222241 0.328487 0.917990
0.181107 0.306198 0.934582
0.240152 0.321042 0.916111
0.272844 0.260710 0.926060
-0.172132 0.365814 0.914631
-0.118719 0.399459 0.909032
-0.058855 0.428218 0.901757
0.007253 0.448930 0.893538
0.079287 0.459573 0.884594
0.118107 0.398243 0.909644
0.140872 0.344011 0.928338
-0.100981 -0.334804 0.936861
-0.046264 -0.320514 0.946113
-0.000564 -0.356981 0.934111
0.049781 -0.326019 0.944052
0.091109 -0.290097 0.952650
0.144230 -0.305597 0.941174
-0.208131 -0.327028 0.921810
-0.154236 -0.345498 0.925658
-0.120325 -0.244660 0.962114
-0.090913 -0.283776 0.954571
0.124371 -0.251316 0.959881
0.175291 -0.259520 0.949696
0.198044 -0.212594 0.956861
0.250967 -0.204985 0.946043
-0.260248 -0.239853 0.935276
-0.206939 -0.268226 0.940867
0.169354 -0.169828 0.970813
0.214370 -0.165820 0.962574
0.305900 -0.188403 0.933236
-0.294226 -0.141261 0.945239
-0.309215 -0.202854 0.929105
0.229594 -0.076129 0.970304
0.263305 -0.149972 0.952984
-0.334419 -0.096687 0.937452
0.311772 -0.125750 0.941799
0.307032 -0.064987 0.949478
-0.374517 -0.047492 0.926003
-0.313047 -0.044372 0.948701
0.348146 -0.018564 0.937256
-0.344752 0.003463 0.938687
-0.260229 -0.041123 0.964671
0.404607 -0.052068 0.913007
-0.373961 0.055152 0.925803
0.303767 0.028850 0.952310
-0.330884 0.098220 0.938546
-0.310500 0.047475 0.949387
-0.273939 0.086471 0.957852
0.399519 0.017907 0.916550
-0.286513 0.136909 0.948244
0.349524 0.049913 0.935597
-0.239471 0.219803 0.945696
-0.240845 0.167194 0.956054
-0.195712 0.146744 0.969620
0.303777 0.144927 0.941656
0.356468 0.120318 0.926528
-0.234821 0.274179 0.932569
0.296217 0.201672 0.933586
0.251421 0.159592 0.954630
0.237093 0.209889 0.948543
-0.184518 0.245928 0.951563
-0.171577 0.298154 0.938970
-0.148821 0.215560 0.965083
-0.127131 0.266987 0.955278
0.153960 0.255074 0.954585
0.212515 0.259676 0.942022
-0.121927 0.328693 0.936534
-0.069338 0.357781 0.931228
-0.011787 0.379155 0.925258
0.049992 0.393175 0.918103
0.081514 0.340540 0.936690
0.118556 0.293130 0.948693
0.003274 -0.298233 0.954487
0.044627 -0.269816 0.961877
-0.150259 -0.288653 0.945569
-0.095925 -0.206218 0.973793
-0.071112 -0.238436 0.968551
-0.038825 -0.269322 0.962267
0.003157 -0.247019 0.969006
0.038879 -0.221536 0.974377
0.079170 -0.238027 0.968027
0.150015 -0.210879 0.965932
0.128597 -0.168410 0.977293
-0.211912 -0.210189 0.954418
-0.166149 -0.232868 0.958210
-0.132612 -0.196628 0.971469
0.145031 -0.132293 0.980543
0.183094 -0.128821 0.974619
0.224885 -0.120094 0.966956
-0.255260 -0.179826 0.950002
-0.209273 -0.157087 0.965157
-0.171388 -0.181470 0.968347
0.192055 -0.088044 0.977427
0.268382 -0.094774 0.958639
-0.279442 -0.087648 0.956154
-0.244681 -0.125434 0.961456
0.118865 -0.043783 0.991945
0.205852 -0.045970 0.977503
-0.231452 -0.078418 0.969681
0.125688 -0.013789 0.991974
0.253958 -0.041302 0.966333
-0.286665 0.001011 0.958030
-0.215054 -0.036897 0.975905
0.294452 -0.018470 0.955488
-0.257242 0.040825 0.965484
-0.237444 -0.000318 0.971401
0.217950 -0.009175 0.975917
-0.211808 0.034703 0.976695
0.255514 0.009428 0.966759
-0.235399 0.118905 0.964598
0.306147 0.086860 0.948013
0.261426 0.057826 0.963490
0.220273 0.079009 0.972233
-0.192146 0.103556 0.975887
-0.157846 0.127260 0.979229
0.259135 0.108631 0.959713
-0.194477 0.193908 0.961550
-0.155354 0.169340 0.973236
-0.122855 0.144799 0.981804
0.201320 0.168985 0.964839
0.213780 0.123999 0.968980
-0.106316 0.222801 0.969049
-0.075385 0.249059 0.965550
-0.071475 0.198890 0.977412
-0.038895 0.224966 0.973590
0.098692 0.247469 0.963856
0.130435 0.211921 0.968543
0.083437 0.206808 0.974817
0.181905 0.213061 0.959956
-0.077222 0.296510 0.951903
-0.025977 0.317188 0.948007
0.026252 0.330587 0.943410
0.064237 0.286978 0.955781
-0.094789 -0.168236 0.981179
-0.060821 -0.193309 0.979251
-0.031529 -0.221272 0.974702
0.004040 -0.202089 0.979359
0.033540 -0.179421 0.983200
0.067982 -0.193228 0.978796
0.106820 -0.203869 0.973153
0.091716 -0.163201 0.982320
-0.132895 -0.156144 0.978753
-0.075589 -0.139273 0.987365
-0.054617 -0.159066 0.985756
0.058643 -0.154783 0.986206
0.078614 -0.128425 0.988598
0.157222 -0.095742 0.982911
0.110247 -0.132012 0.985098
-0.168247 -0.136863 0.976197
-0.105393 -0.131692 0.985672
0.124810 -0.100083 0.987120
0.169628 -0.058195 0.983788
0.137614 -0.067245 0.988201
-0.200778 -0.110487 0.973386
-0.130517 -0.082048 0.988045
0.093242 -0.050504 0.994362
0.101254 -0.024494 0.994559
-0.190289 -0.068762 0.979317
-0.163522 -0.095556 0.981901
0.084529 -0.008883 0.996381
0.146987 -0.033872 0.988558
-0.176112 -0.032516 0.983833
0.178752 -0.021071 0.983668
0.153167 -0.000146 0.988200
-0.195188 -0.001000 0.980765
0.185778 0.015190 0.982474
0.155830 0.033647 0.987211
-0.225457 0.074697 0.971385
-0.172878 0.029720 0.984495
-0.148769 0.055348 0.987322
0.220191 0.035171 0.974822
0.185549 0.054494 0.981123
-0.184243 0.064513 0.980761
-0.123443 0.075966 0.989440
0.152645 0.068787 0.985884
-0.125677 0.108475 0.986123
-0.155368 0.089172 0.983824
-0.097500 0.092484 0.990929
0.181252 0.094075 0.978927
0.101426 0.056928 0.993213
0.144695 0.104128 0.983982
-0.114619 0.183314 0.976350
-0.095730 0.124162 0.987633
-0.086940 0.160121 0.983261
0.154218 0.173728 0.972643
0.170900 0.134090 0.976121
0.130969 0.139403 0.981536
-0.052117 0.167753 0.984450
-0.025956 0.192818 0.980891
-0.016596 0.158968 0.987144
-0.029581 0.266360 0.963420
0.009157 0.184224 0.982842
0.015253 0.275641 0.961140
0.042192 0.199415 0.979006
0.049688 0.239897 0.969526
0.071445 0.170042 0.982844
0.110706 0.173925 0.978516
-0.025971 -0.180412 0.983248
0.003026 -0.163045 0.986614
0.029201 -0.143752 0.989183
-0.048837 -0.124288 0.991044
-0.036337 -0.100641 0.994259
-0.016997 -0.089330 0.995857
-0.025290 -0.145271 0.989069
-0.019597 -0.116963 0.992943
0.024372 -0.113272 0.993265
0.050062 -0.121964 0.991271
0.067287 -0.099082 0.992802
0.094805 -0.101127 0.990346
-0.135054 -0.116570 0.983957
-0.079472 -0.082647 0.993405
-0.077402 -0.110738 0.990831
-0.037042 -0.077081 0.996336
0.057391 -0.074599 0.995561
0.108503 -0.072939 0.991417
0.081783 -0.075294 0.993802
-0.104624 -0.099157 0.989556
-0.077037 -0.058538 0.995308
0.047995 -0.054117 0.997380
0.078889 -0.032093 0.996367
0.069580 -0.053870 0.996121
-0.154482 -0.059711 0.986190
-0.123621 -0.051213 0.991007
-0.102254 -0.069584 0.992322
0.065290 -0.017159 0.997719
0.046829 -0.021571 0.998670
-0.142665 -0.028164 0.989370
-0.113854 -0.024260 0.993201
0.068522 0.003508 0.997643
0.105416 0.002411 0.994425
-0.158882 -0.001095 0.987297
-0.110281 0.021432 0.993669
0.128770 0.016687 0.991534
-0.139314 0.025381 0.989923
0.127810 0.047403 0.990665
0.105539 0.029706 0.993971
0.067201 0.024445 0.997440
-0.095907 0.064363 0.993307
-0.118083 0.047034 0.991889
-0.052368 0.043445 0.997682
0.083272 0.039030 0.995762
0.076480 0.062274 0.995124
-0.073231 0.077755 0.994279
-0.072547 0.053087 0.995951
-0.053347 0.064553 0.996487
0.110748 0.109544 0.987793
0.121683 0.078544 0.989456
0.092724 0.083879 0.992152
-0.066373 0.134511 0.988687
-0.071226 0.104674 0.991953
-0.037533 0.139270 0.989543
-0.044133 0.113029 0.992611
-0.014911 0.123931 0.992179
0.061966 0.136598 0.988687
0.051677 0.107212 0.992892
0.037797 0.161525 0.986145
0.094432 0.140229 0.985606
0.079689 0.110466 0.990680
0.009224 0.146813 0.989121
0.005150 0.226841 0.973918
0.000294 -0.077673 0.996979
0.001850 -0.102477 0.994734
0.002789 -0.131147 0.991359
0.042276 -0.094378 0.994638
-0.056581 -0.069048 0.996007
-0.057093 -0.093992 0.993935
-0.018785 -0.067488 0.997543
-0.016936 -0.049852 0.998613
-0.001608 -0.057906 0.998321
0.019907 -0.087199 0.995992
0.006964 -0.030620 0.999507
0.035417 -0.071165 0.996836
0.028604 -0.051579 0.998259
-0.055652 -0.047904 0.997300
-0.041496 -0.035904 0.998493
-0.036765 -0.056087 0.997749
-0.015623 -0.031638 0.999377
0.021882 -0.035327 0.999136
0.016153 -0.021359 0.999641
0.038929 -0.037048 0.998555
0.057975 -0.036160 0.997663
-0.096682 -0.043839 0.994349
-0.073437 -0.037071 0.996611
-0.055285 -0.026730 0.998113
0.030269 -0.022760 0.999283
0.035981 -0.009432 0.999308
0.052348 -0.005238 0.998615
-0.100425 -0.000960 0.994944
-0.089338 -0.020833 0.995783
-0.069007 -0.017002 0.997471
0.013303 -0.001088 0.999911
0.026261 0.003648 0.999648
0.039596 0.003769 0.999209
-0.127546 -0.001056 0.991832
-0.084969 0.017798 0.996225
0.052808 0.012832 0.998522
0.036256 0.017104 0.999196
0.086027 0.015108 0.996178
-0.068537 0.031413 0.997154
-0.091623 0.039379 0.995015
-0.044584 0.009342 0.998962
-0.048958 0.025067 0.998486
0.061731 0.044420 0.997104
0.048430 0.029719 0.998384
-0.035078 0.034574 0.998786
-0.035774 0.053142 0.997946
-0.020905 0.026388 0.999433
-0.018391 0.060469 0.998001
0.053218 0.063948 0.996533
0.016073 0.029360 0.999440
0.031592 0.062897 0.997520
0.041592 0.046557 0.998049
-0.049754 0.088501 0.994833
-0.024466 0.098798 0.994807
-0.033881 0.074284 0.996661
-0.014946 0.080078 0.996677
0.000748 0.095115 0.995466
0.026287 0.100822 0.994557
0.018267 0.079088 0.996700
0.041387 0.082786 0.995708
0.013152 0.057930 0.998234
0.065969 0.085060 0.994190
0.008584 0.117808 0.992999
0.033762 0.128800 0.991096
0.011237 -0.046671 0.998847
0.015952 -0.065179 0.997746
-0.027738 -0.040237 0.998805
-0.015930 -0.016474 0.999737
-0.003694 -0.040091 0.999189
-0.006663 -0.009675 0.999931
0.002874 -0.016792 0.999855
-0.026833 -0.009685 0.999593
-0.028282 -0.024062 0.999310
-0.005360 -0.023985 0.999698
0.001810 -0.004144 0.999990
0.022864 -0.009444 0.999694
0.010668 -0.010587 0.999887
-0.076879 -0.000740 0.997040
-0.055374 -0.005483 0.998451
-0.041673 -0.017647 0.998975
-0.016316 -0.002360 0.999864
-0.006582 0.002366 0.999976
0.003881 0.005228 0.999979
0.014950 0.008652 0.999851
-0.062626 0.012275 0.997962
-0.038897 -0.003461 0.999237
-0.027670 0.004953 0.999605
-0.016457 0.011173 0.999802
-0.003162 0.012845 0.999912
0.008366 0.016941 0.999821
0.022658 0.017751 0.999586
-0.031931 0.018168 0.999325
-0.009601 0.021590 0.999721
-0.007855 0.035641 0.999334
0.002185 0.026435 0.999648
0.023507 0.044764 0.998721
0.031390 0.031308 0.999017
-0.020654 0.042840 0.998868
0.000363 0.070410 0.997518
-0.004211 0.051515 0.998663
0.007312 0.040852 0.999138
3 0 52 1
3 3 2 0
3 4 2 3
3 43 7 6
3 5 43 3
3 4 3 43
3 0 1 8
3 1 9 8
3 10 3 0
3 10 0 8
3 11 5 10
3 5 3 10
3 53 7 12
3 13 7 5
3 12 7 13
3 13 19 12
3 8 16 15
3 9 16 8
3 15 11 10
3 15 10 8
3 13 11 18
3 17 11 15
3 18 11 17
3 18 19 13
3 19 20 14
3 20 19 25
3 16 21 15
3 21 17 15
3 21 22 17
3 22 73 23
3 17 22 24
3 17 24 18
3 25 18 24
3 25 19 18
3 25 24 26
3 12 19 14
3 27 82 23
3 23 82 28
3 28 24 22
3 83 26 28
3 33 31 32
3 29 31 30
3 29 32 31
3 44 34 33
3 4 44 32
3 37 35 36
3 107 37 38
3 34 36 35
3 39 41 40
3 42 29 30
3 41 42 30
3 41 39 42
3 2 29 42
3 32 29 4
3 32 44 33
3 34 35 33
3 45 34 6
3 44 6 34
3 46 38 36
3 45 54 46
3 46 36 45
3 46 48 38
3 50 49 51
3 49 39 51
3 52 39 49
3 40 51 39
3 52 2 42
3 52 0 2
3 52 42 39
3 4 29 2
3 43 44 4
3 6 44 43
3 5 7 43
3 36 34 45
3 7 53 6
3 45 53 54
3 47 46 54
3 53 45 6
3 47 54 55
3 55 54 56
3 57 47 55
3 61 55 56
3 59 58 50
3 50 58 49
3 58 9 1
3 49 1 52
3 60 9 58
3 1 49 58
3 11 13 5
3 56 12 14
3 56 53 12
3 56 14 61
3 62 55 61
3 54 53 56
3 62 57 55
3 63 57 62
3 60 65 64
3 59 65 60
3 58 59 60
3 66 60 64
3 60 66 9
3 66 16 9
3 68 61 67
3 20 67 14
3 67 61 14
3 68 62 61
3 62 68 69
3 62 69 63
3 71 70 138
3 65 138 70
3 78 66 64
3 78 64 80
3 66 72 16
3 72 21 16
3 72 73 21
3 21 73 22
3 20 25 74
3 75 67 20
3 26 85 74
3 75 20 74
3 67 75 76
3 140 76 75
3 67 76 68
3 69 68 76
3 64 70 80
3 79 78 87
3 80 87 78
3 78 72 66
3 27 73 79
3 72 78 79
3 90 91 82
3 81 27 79
3 27 23 73
3 82 83 28
3 23 28 22
3 83 85 26
3 28 26 24
3 84 85 83
3 74 85 77
3 74 25 26
3 77 75 74
3 85 86 77
3 73 72 79
3 89 81 87
3 89 88 81
3 79 87 81
3 27 90 82
3 90 81 88
3 82 91 83
3 90 27 81
3 84 83 91
3 84 91 93
3 92 84 93
3 86 92 153
3 84 86 85
3 94 86 154
3 88 95 96
3 88 89 95
3 88 97 90
3 97 93 91
3 91 90 97
3 97 88 96
3 101 100 98
3 99 98 100
3 100 101 102
3 104 102 103
3 103 102 101
3 106 104 105
3 104 103 105
3 107 106 37
3 105 37 106
3 108 109 184
3 194 121 112
3 113 98 99
3 122 113 99
3 112 110 180
3 30 98 41
3 98 30 101
3 101 30 31
3 103 31 33
3 103 101 31
3 105 103 33
3 105 33 35
3 37 105 35
3 107 108 106
3 114 115 107
3 107 38 114
3 109 107 115
3 36 38 37
3 114 116 117
3 114 117 115
3 118 117 116
3 120 126 125
3 99 110 122
3 112 121 122
3 119 122 121
3 122 40 113
3 113 40 41
3 110 112 122
3 41 98 113
3 114 38 48
3 48 46 47
3 48 123 116
3 116 114 48
3 116 124 118
3 123 124 116
3 119 120 125
3 121 120 119
3 50 51 125
3 51 119 125
3 40 122 119
3 51 40 119
3 123 57 127
3 57 123 47
3 127 124 123
3 47 123 48
3 124 127 128
3 63 132 129
3 130 126 131
3 126 130 125
3 125 130 50
3 134 59 50
3 63 127 57
3 129 127 63
3 132 203 129
3 129 128 127
3 131 135 130
3 135 134 130
3 134 50 130
3 65 59 134
3 132 63 69
3 136 132 69
3 208 203 133
3 136 133 132
3 138 134 135
3 138 135 139
3 134 138 65
3 64 65 70
3 77 140 75
3 140 141 76
3 141 136 76
3 76 136 69
3 147 142 137
3 141 137 136
3 143 71 139
3 144 71 145
3 138 139 71
3 143 145 71
3 70 144 80
3 144 149 80
3 146 140 94
3 77 86 94
3 146 148 147
3 221 155 148
3 147 141 146
3 141 147 137
3 145 150 144
3 150 149 144
3 87 80 149
3 149 151 89
3 70 71 144
3 89 87 149
3 152 93 161
3 92 152 153
3 86 84 92
3 154 153 163
3 146 154 148
3 146 94 154
3 140 77 94
3 146 141 140
3 149 150 151
3 151 156 157
3 156 151 150
3 158 95 157
3 95 89 151
3 157 95 151
3 159 158 157
3 96 95 158
3 96 158 160
3 160 97 96
3 167 161 160
3 152 92 93
3 162 152 161
3 97 161 93
3 163 153 164
3 152 162 164
3 153 152 164
3 154 86 153
3 159 166 158
3 165 166 159
3 166 160 158
3 160 161 97
3 238 236 234
3 162 237 168
3 162 168 164
3 167 162 161
3 170 182 171
3 172 173 169
3 173 171 169
3 173 172 175
3 172 174 175
3 176 177 175
3 176 175 174
3 177 184 178
3 255 179 243
3 99 181 110
3 99 100 181
3 181 169 182
3 169 171 182
3 100 169 181
3 169 100 102
3 169 102 172
3 102 104 172
3 172 104 174
3 104 106 174
3 176 174 108
3 174 106 108
3 109 108 107
3 108 184 176
3 176 184 177
3 186 184 109
3 186 109 183
3 186 183 185
3 185 192 257
3 188 258 189
3 188 111 180
3 179 180 110
3 111 112 180
3 190 188 255
3 179 110 181
3 109 115 183
3 117 183 115
3 187 183 117
3 187 191 192
3 118 191 187
3 117 118 187
3 183 187 185
3 260 192 191
3 199 194 111
3 194 120 121
3 189 111 188
3 194 112 111
3 195 118 124
3 191 118 195
3 195 193 191
3 196 193 195
3 198 202 201
3 120 197 126
3 197 120 194
3 199 197 194
3 128 195 124
3 196 128 200
3 196 195 128
3 200 128 129
3 198 201 197
3 198 197 199
3 131 126 201
3 126 197 201
3 203 204 200
3 203 200 129
3 203 132 133
3 203 208 204
3 131 201 207
3 201 202 207
3 207 206 131
3 206 135 131
3 137 133 136
3 208 133 212
3 209 205 213
3 205 208 213
3 206 211 210
3 207 211 206
3 139 206 210
3 135 206 139
3 212 133 137
3 142 212 137
3 208 212 213
3 208 205 204
3 211 214 210
3 215 145 143
3 139 210 143
3 216 143 210
3 214 216 210
3 215 143 216
3 217 142 155
3 212 142 218
3 142 147 155
3 217 218 142
3 215 216 220
3 224 219 215
3 219 145 215
3 150 145 219
3 221 148 163
3 217 222 223
3 155 222 217
3 222 155 221
3 147 148 155
3 223 279 217
3 224 215 220
3 226 225 224
3 219 156 150
3 219 225 156
3 225 219 224
3 225 227 156
3 157 227 159
3 157 156 227
3 163 164 228
3 221 228 229
3 154 163 148
3 229 222 221
3 221 163 228
3 230 222 229
3 231 227 225
3 232 227 231
3 225 226 231
3 233 165 232
3 227 232 159
3 232 165 159
3 233 235 234
3 236 166 165
3 233 234 165
3 160 166 167
3 166 236 167
3 167 237 162
3 237 236 238
3 237 167 236
3 239 228 168
3 294 239 168
3 164 168 228
3 229 239 295
3 235 240 234
3 165 234 236
3 240 241 238
3 234 240 238
3 242 254 243
3 244 242 170
3 170 171 245
3 170 245 244
3 173 246 171
3 246 245 171
3 246 173 175
3 246 175 247
3 247 175 177
3 247 177 248
3 178 250 248
3 178 248 177
3 310 248 250
3 315 249 316
3 320 253 252
3 252 190 254
3 179 255 180
3 254 190 255
3 170 243 182
3 182 243 179
3 170 242 243
3 182 179 181
3 184 186 178
3 256 250 178
3 318 249 250
3 178 186 256
3 256 186 185
3 185 257 256
3 188 190 258
3 253 258 190
3 252 253 190
3 188 180 255
3 192 259 257
3 192 185 187
3 191 193 260
3 192 260 259
3 262 263 329
3 199 111 189
3 258 263 189
3 199 189 261
3 265 260 193
3 265 193 264
3 193 196 264
3 266 265 264
3 262 267 261
3 198 199 261
3 267 198 261
3 261 189 263
3 196 268 264
3 200 268 196
3 269 266 264
3 269 264 268
3 267 272 202
3 267 202 198
3 204 268 200
3 204 205 271
3 269 268 271
3 271 268 204
3 270 272 267
3 272 207 202
3 205 209 273
3 205 273 271
3 274 211 272
3 211 207 272
3 218 275 213
3 273 209 344
3 209 275 276
3 209 213 275
3 214 211 274
3 277 214 278
3 278 214 274
3 214 277 216
3 218 213 212
3 279 275 218
3 279 280 275
3 280 276 275
3 278 281 277
3 277 281 282
3 277 282 220
3 216 277 220
3 223 230 289
3 279 218 217
3 283 280 279
3 223 283 279
3 282 285 220
3 285 224 220
3 285 226 224
3 286 226 285
3 229 295 230
3 230 223 222
3 223 289 283
3 230 287 289
3 287 288 289
3 356 284 283
3 286 290 226
3 290 231 226
3 291 232 231
3 291 231 290
3 292 291 290
3 235 233 293
3 233 232 291
3 293 233 291
3 238 294 237
3 294 168 237
3 239 294 296
3 295 239 296
3 228 239 229
3 295 287 230
3 297 287 295
3 288 287 361
3 292 293 291
3 299 293 298
3 293 292 298
3 300 235 299
3 293 299 235
3 235 300 240
3 300 301 240
3 301 241 240
3 296 294 241
3 294 238 241
3 301 302 241
3 302 296 241
3 305 304 303
3 307 303 306
3 305 303 307
3 306 308 307
3 308 309 307
3 374 309 315
3 313 312 314
3 311 314 312
3 314 311 242
3 242 244 314
3 304 314 244
3 304 244 303
3 303 244 245
3 245 306 303
3 246 306 245
3 247 306 246
3 308 306 247
3 308 247 248
3 308 248 310
3 310 250 249
3 251 316 249
3 310 249 315
3 318 251 249
3 317 251 319
3 317 316 251
3 319 251 322
3 252 311 321
3 252 321 320
3 311 252 254
3 312 321 311
3 243 254 255
3 242 311 254
3 318 250 256
3 322 318 257
3 324 323 319
3 322 251 318
3 318 256 257
3 324 319 322
3 327 326 325
3 253 263 258
3 325 253 320
3 327 325 320
3 259 322 257
3 324 259 328
3 322 259 324
3 328 259 260
3 329 325 326
3 263 325 329
3 261 263 262
3 253 325 263
3 330 328 265
3 328 260 265
3 331 330 266
3 330 265 266
3 334 333 332
3 262 332 267
3 334 332 262
3 329 334 262
3 331 266 335
3 266 269 335
3 332 333 336
3 333 337 336
3 267 332 270
3 332 336 270
3 269 271 338
3 269 338 335
3 339 336 340
3 336 337 340
3 274 272 270
3 339 270 336
3 338 271 273
3 338 273 341
3 342 339 340
3 342 278 339
3 339 278 274
3 270 339 274
3 341 273 344
3 209 276 344
3 281 343 348
3 281 278 342
3 284 280 283
3 344 276 347
3 276 346 347
3 276 280 346
3 342 343 281
3 348 345 352
3 348 343 345
3 348 282 281
3 346 280 284
3 346 284 351
3 351 284 350
3 347 346 408
3 349 352 345
3 282 348 353
3 352 353 348
3 353 352 357
3 282 353 285
3 353 286 285
3 350 356 355
3 356 289 288
3 350 284 356
3 283 289 356
3 354 357 352
3 286 358 290
3 357 358 286
3 357 286 353
3 290 358 292
3 358 359 292
3 296 297 295
3 302 360 297
3 360 362 361
3 297 360 361
3 361 287 297
3 361 355 288
3 363 298 359
3 298 292 359
3 364 299 298
3 364 298 363
3 364 365 299
3 365 300 299
3 366 301 300
3 366 300 365
3 367 301 366
3 302 301 367
3 360 367 368
3 296 302 297
3 360 302 367
3 368 362 360
3 370 369 371
3 313 304 305
3 371 369 305
3 371 305 307
3 370 371 374
3 371 307 309
3 373 372 375
3 371 309 374
3 309 308 310
3 375 372 374
3 313 377 312
3 377 376 312
3 378 377 313
3 378 313 369
3 369 313 305
3 313 314 304
3 315 309 310
3 375 374 315
3 375 315 316
3 379 375 316
3 380 379 317
3 379 316 317
3 381 317 319
3 380 317 381
3 376 382 321
3 383 382 376
3 320 321 382
3 321 312 376
3 384 381 323
3 381 319 323
3 388 385 323
3 385 384 323
3 386 326 327
3 386 327 387
3 382 387 327
3 382 327 320
3 323 324 388
3 385 390 389
3 324 328 388
3 390 385 388
3 386 391 326
3 334 329 326
3 330 388 328
3 390 388 330
3 390 331 392
3 390 330 331
3 393 333 391
3 393 391 394
3 391 333 334
3 391 334 326
3 392 331 395
3 331 335 395
3 337 333 393
3 337 393 396
3 395 335 397
3 335 338 397
3 398 337 396
3 340 337 398
3 397 338 341
3 397 402 399
3 342 340 400
3 400 398 401
3 400 340 398
3 400 343 342
3 402 341 344
3 397 341 402
3 401 403 400
3 403 404 345
3 403 343 400
3 403 345 343
3 402 344 347
3 402 347 405
3 404 409 349
3 404 349 345
3 408 351 407
3 351 412 407
3 405 347 408
3 351 408 346
3 352 349 354
3 404 406 409
3 410 349 409
3 354 349 410
3 356 288 355
3 411 412 350
3 351 350 412
3 411 350 355
3 354 466 413
3 354 413 357
3 358 357 413
3 414 466 415
3 358 413 359
3 414 359 413
3 355 361 362
3 417 425 416
3 411 417 418
3 355 362 411
3 411 362 417
3 418 412 411
3 415 419 414
3 420 363 419
3 363 414 419
3 363 359 414
3 421 364 420
3 364 363 420
3 422 365 421
3 365 364 421
3 422 366 365
3 423 366 422
3 423 367 366
3 368 367 423
3 368 423 424
3 368 424 425
3 425 362 368
3 417 362 425
3 370 426 369
3 427 426 428
3 428 426 370
3 428 370 372
3 429 428 372
3 370 374 372
3 430 429 373
3 429 372 373
3 431 430 373
3 431 373 379
3 377 432 376
3 433 432 377
3 378 433 377
3 434 433 378
3 426 434 378
3 426 378 369
3 435 431 380
3 373 375 379
3 436 435 437
3 431 379 380
3 437 435 380
3 437 380 381
3 383 387 382
3 439 438 383
3 432 439 383
3 432 383 376
3 440 437 384
3 437 381 384
3 441 440 384
3 441 384 385
3 443 446 386
3 443 386 387
3 438 443 387
3 438 387 383
3 441 385 389
3 441 389 444
3 445 444 389
3 445 389 392
3 442 446 443
3 394 391 386
3 389 390 392
3 445 509 447
3 448 393 394
3 448 394 449
3 446 394 386
3 449 394 446
3 450 392 395
3 445 392 450
3 448 396 393
3 451 396 448
3 452 395 397
3 450 395 452
3 451 453 396
3 453 398 396
3 452 397 399
3 452 399 454
3 453 455 401
3 453 401 398
3 456 399 405
3 454 399 456
3 457 403 401
3 457 401 455
3 406 404 457
3 404 403 457
3 399 402 405
3 456 462 459
3 458 406 457
3 460 406 458
3 462 408 407
3 462 407 461
3 462 405 408
3 456 405 462
3 463 409 406
3 463 406 460
3 464 410 409
3 464 409 463
3 465 407 412
3 461 407 465
3 466 354 410
3 466 410 464
3 414 413 466
3 415 464 467
3 469 417 416
3 469 416 468
3 469 418 417
3 470 418 469
3 465 412 418
3 465 418 470
3 471 419 415
3 471 415 467
3 472 420 419
3 472 419 471
3 473 421 420
3 473 420 472
3 474 422 421
3 474 421 473
3 475 423 422
3 475 422 474
3 476 424 475
3 424 423 475
3 416 425 424
3 416 424 476
3 477 416 476
3 468 416 477
3 427 434 426
3 479 478 427
3 479 427 480
3 480 427 428
3 481 480 429
3 480 428 429
3 482 481 430
3 482 430 483
3 481 429 430
3 431 483 430
3 433 484 432
3 485 484 433
3 541 485 478
3 485 433 434
3 478 485 434
3 487 541 478
3 478 434 427
3 479 487 478
3 488 482 483
3 489 483 435
3 488 483 489
3 483 431 435
3 490 489 436
3 490 436 491
3 489 435 436
3 440 491 436
3 439 492 438
3 493 492 439
3 484 493 439
3 484 439 432
3 494 490 495
3 495 491 500
3 490 491 495
3 436 437 440
3 496 491 440
3 496 440 441
3 498 497 442
3 498 442 443
3 498 443 438
3 498 438 492
3 491 496 500
3 496 502 500
3 496 441 444
3 502 496 444
3 497 501 442
3 449 446 442
3 560 555 500
3 444 447 502
3 445 447 444
3 502 447 503
3 449 504 448
3 501 504 449
3 505 504 501
3 501 449 442
3 503 447 506
3 447 509 506
3 568 507 505
3 507 451 504
3 504 451 448
3 505 507 504
3 445 450 509
3 450 454 509
3 451 510 453
3 507 510 451
3 450 452 454
3 509 515 506
3 513 512 510
3 512 455 510
3 510 455 453
3 513 514 512
3 509 454 515
3 456 459 515
3 458 457 455
3 516 458 512
3 458 455 512
3 514 516 512
3 515 459 517
3 456 515 454
3 519 518 460
3 460 458 516
3 519 460 516
3 519 583 518
3 522 462 461
3 522 461 521
3 522 459 462
3 517 459 522
3 518 463 460
3 523 464 463
3 523 463 518
3 527 523 518
3 526 525 524
3 524 461 465
3 521 524 525
3 521 461 524
3 415 466 464
3 467 464 523
3 471 467 528
3 467 523 528
3 530 528 527
3 588 530 529
3 532 468 531
3 469 468 532
3 524 470 526
3 470 532 526
3 470 469 532
3 524 465 470
3 528 523 527
3 533 472 471
3 533 528 530
3 533 471 528
3 473 472 534
3 472 533 534
3 535 474 473
3 535 473 534
3 536 475 474
3 536 474 535
3 537 476 536
3 476 475 536
3 538 477 537
3 477 476 537
3 531 468 538
3 468 477 538
3 480 539 479
3 481 539 480
3 540 539 481
3 482 540 481
3 485 541 484
3 551 541 486
3 541 487 486
3 543 486 487
3 602 543 544
3 542 486 543
3 479 544 487
3 544 479 539
3 545 544 539
3 545 539 540
3 545 540 546
3 546 540 547
3 540 482 547
3 547 482 488
3 606 547 488
3 548 488 489
3 549 548 494
3 548 489 490
3 493 550 492
3 551 550 493
3 551 486 552
3 541 493 484
3 551 493 541
3 542 552 486
3 553 549 494
3 548 490 494
3 554 553 494
3 554 495 555
3 554 494 495
3 500 555 495
3 498 556 497
3 492 556 498
3 557 556 550
3 550 556 492
3 558 557 550
3 551 558 550
3 559 554 555
3 555 560 499
3 555 499 559
3 559 564 618
3 562 561 497
3 562 497 556
3 561 501 497
3 557 562 556
3 502 560 500
3 499 567 564
3 560 503 567
3 503 560 502
3 561 508 505
3 561 505 501
3 566 563 627
3 567 503 570
3 629 627 618
3 560 567 499
3 508 568 505
3 569 565 624
3 568 508 572
3 565 508 561
3 503 506 570
3 506 511 570
3 568 513 507
3 513 510 507
3 572 508 569
3 571 568 572
3 506 517 511
3 570 575 567
3 571 513 568
3 634 514 571
3 514 513 571
3 572 574 571
3 570 511 575
3 511 578 575
3 634 576 514
3 576 516 514
3 579 578 582
3 506 515 517
3 511 577 578
3 511 517 577
3 520 519 576
3 519 516 576
3 581 520 580
3 520 576 580
3 577 522 521
3 577 521 582
3 578 577 582
3 577 517 522
3 584 583 520
3 583 519 520
3 581 584 520
3 584 529 583
3 587 525 586
3 525 526 586
3 582 521 525
3 582 525 587
3 583 527 518
3 583 529 527
3 588 529 648
3 648 529 584
3 530 527 529
3 589 530 588
3 590 589 588
3 590 591 589
3 594 593 592
3 595 532 531
3 595 531 593
3 593 531 592
3 586 526 595
3 526 532 595
3 596 533 530
3 596 534 533
3 596 589 657
3 596 530 589
3 597 534 596
3 535 534 597
3 598 536 535
3 598 535 597
3 599 537 598
3 537 536 598
3 592 661 594
3 537 599 538
3 538 599 592
3 592 531 538
3 601 600 542
3 601 542 543
3 601 543 602
3 543 487 544
3 602 544 545
3 602 545 603
3 603 545 546
3 603 546 604
3 605 604 546
3 605 546 547
3 606 605 547
3 607 606 549
3 606 488 548
3 549 606 548
3 616 608 600
3 558 551 552
3 600 608 552
3 610 600 601
3 600 552 542
3 610 609 600
3 611 605 607
3 607 605 606
3 612 611 607
3 612 607 614
3 607 549 614
3 614 549 553
3 614 553 617
3 554 613 553
3 615 557 558
3 615 608 676
3 608 615 558
3 608 558 552
3 617 553 613
3 619 613 618
3 617 619 681
3 613 554 559
3 613 559 618
3 564 559 499
3 562 565 561
3 625 620 615
3 620 557 615
3 620 562 557
3 681 619 563
3 618 627 619
3 627 563 619
3 622 563 623
3 625 624 620
3 624 565 620
3 620 565 562
3 621 625 676
3 566 623 563
3 623 566 696
3 626 623 696
3 629 618 564
3 624 628 569
3 569 508 565
3 630 566 627
3 630 627 629
3 573 632 629
3 567 573 564
3 628 631 569
3 631 572 569
3 633 630 632
3 566 630 699
3 567 575 573
3 564 573 629
3 639 634 574
3 574 572 631
3 635 574 631
3 635 639 574
3 638 632 637
3 633 632 638
3 632 573 637
3 573 575 637
3 634 580 576
3 634 571 574
3 636 639 635
3 643 639 636
3 637 578 579
3 637 579 638
3 638 645 641
3 637 575 578
3 639 580 634
3 643 580 639
3 642 640 644
3 581 580 643
3 643 636 640
3 643 642 581
3 708 646 714
3 645 579 587
3 641 713 701
3 638 579 645
3 585 584 581
3 648 585 650
3 585 642 649
3 585 581 642
3 649 644 716
3 649 650 585
3 653 652 651
3 652 587 586
3 645 652 647
3 652 586 651
3 645 587 652
3 579 582 587
3 648 584 585
3 654 590 650
3 590 648 650
3 590 588 648
3 655 591 590
3 655 654 656
3 655 590 654
3 726 591 655
3 658 655 656
3 726 659 657
3 661 659 726
3 594 661 660
3 661 726 660
3 663 593 594
3 663 594 662
3 662 594 660
3 651 595 593
3 651 663 653
3 651 593 663
3 651 586 595
3 657 589 591
3 657 597 596
3 657 591 726
3 659 598 597
3 659 597 657
3 599 659 661
3 598 659 599
3 661 592 599
3 602 664 601
3 665 664 603
3 664 602 603
3 604 665 603
3 729 665 666
3 611 666 604
3 609 616 600
3 668 667 671
3 667 609 610
3 669 668 671
3 667 610 670
3 670 610 664
3 610 601 664
3 671 670 729
3 670 664 665
3 728 671 729
3 665 604 666
3 672 666 673
3 666 611 673
3 604 605 611
3 674 673 612
3 674 612 675
3 673 611 612
3 614 675 612
3 616 676 608
3 683 676 616
3 683 616 678
3 678 609 667
3 616 609 678
3 732 667 668
3 678 667 732
3 669 679 668
3 680 674 682
3 674 675 682
3 675 614 617
3 682 675 681
3 675 617 681
3 619 617 613
3 676 625 615
3 683 621 676
3 690 683 677
3 683 678 677
3 680 682 687
3 682 681 622
3 682 622 687
3 681 563 622
3 687 622 686
3 623 686 622
3 625 688 624
3 689 688 621
3 688 625 621
3 690 689 621
3 690 621 683
3 684 690 677
3 747 687 686
3 747 686 691
3 686 626 691
3 623 626 686
3 688 628 624
3 693 628 688
3 694 693 689
3 693 688 689
3 753 692 691
3 691 626 695
3 626 764 695
3 566 699 696
3 693 697 628
3 697 631 628
3 700 697 760
3 697 693 760
3 629 632 630
3 630 633 699
3 697 635 631
3 700 636 635
3 700 635 697
3 698 700 760
3 764 702 707
3 701 633 641
3 699 701 702
3 699 633 701
3 766 704 705
3 705 640 636
3 700 705 636
3 766 710 704
3 707 702 646
3 769 703 707
3 633 638 641
3 701 646 702
3 642 643 640
3 709 704 710
3 765 706 710
3 644 704 709
3 640 704 644
3 710 711 709
3 714 713 712
3 641 645 647
3 707 646 708
3 713 647 712
3 641 647 713
3 701 713 646
3 649 642 644
3 715 650 649
3 715 649 716
3 716 644 709
3 716 709 779
3 718 717 715
3 718 716 779
3 719 780 783
3 786 721 784
3 724 723 720
3 724 720 721
3 723 724 712
3 724 714 712
3 652 653 647
3 653 723 712
3 712 647 653
3 717 654 715
3 717 656 654
3 654 650 715
3 725 656 719
3 658 656 725
3 719 656 717
3 726 655 658
3 726 658 660
3 720 662 722
3 662 660 722
3 722 660 658
3 723 662 720
3 663 662 723
3 723 653 663
3 728 727 669
3 671 667 670
3 735 727 792
3 729 670 665
3 729 666 672
3 728 729 672
3 730 672 673
3 674 730 673
3 732 731 677
3 742 731 679
3 732 668 679
3 731 732 679
3 733 669 727
3 733 679 669
3 734 733 735
3 733 727 735
3 669 671 728
3 791 735 792
3 736 728 672
3 736 672 730
3 736 738 792
3 738 736 730
3 738 730 680
3 730 674 680
3 792 738 739
3 685 738 680
3 731 740 684
3 731 684 677
3 741 740 742
3 740 731 742
3 677 678 732
3 793 734 743
3 742 679 733
3 734 742 733
3 797 737 745
3 739 738 685
3 745 744 751
3 746 744 739
3 746 685 747
3 739 685 746
3 680 687 685
3 687 747 685
3 690 748 689
3 749 684 740
3 690 684 748
3 748 684 749
3 750 749 740
3 741 799 806
3 802 745 751
3 692 751 746
3 752 751 692
3 753 752 692
3 747 691 692
3 747 692 746
3 755 754 694
3 748 694 689
3 755 694 748
3 755 749 756
3 755 748 749
3 750 756 749
3 751 752 802
3 752 758 802
3 753 762 759
3 753 759 752
3 753 691 695
3 762 753 695
3 754 760 694
3 760 693 694
3 698 760 754
3 761 754 804
3 695 703 762
3 759 762 763
3 763 758 759
3 758 752 759
3 626 696 764
3 699 702 696
3 698 705 700
3 811 765 761
3 766 765 710
3 765 811 768
3 698 754 761
3 767 768 811
3 770 762 703
3 770 703 769
3 764 703 695
3 707 703 764
3 823 817 763
3 696 702 764
3 766 705 698
3 771 768 818
3 640 705 704
3 766 761 765
3 768 706 765
3 772 771 824
3 773 771 818
3 824 773 820
3 822 778 777
3 823 778 822
3 778 823 770
3 769 778 770
3 707 708 769
3 775 778 769
3 711 710 706
3 706 771 772
3 711 772 781
3 706 772 711
3 779 711 781
3 772 774 781
3 718 779 780
3 783 825 785
3 774 826 825
3 784 789 783
3 780 782 783
3 785 786 784
3 787 825 826
3 788 721 786
3 714 788 708
3 777 787 822
3 708 788 775
3 713 714 646
3 775 786 777
3 769 708 775
3 779 709 711
3 780 779 781
3 715 716 718
3 717 718 719
3 719 783 789
3 718 780 719
3 790 789 784
3 783 785 784
3 721 790 784
3 722 790 720
3 720 790 721
3 788 724 721
3 788 786 775
3 788 714 724
3 789 725 719
3 722 658 725
3 790 725 789
3 790 722 725
3 735 795 734
3 736 727 728
3 792 727 736
3 791 739 744
3 742 793 741
3 799 793 743
3 742 734 793
3 800 795 737
3 795 735 791
3 794 743 800
3 743 795 800
3 795 791 737
3 791 744 737
3 796 797 801
3 792 739 791
3 745 737 744
3 741 750 740
3 806 750 741
3 799 741 793
3 799 743 794
3 798 799 794
3 743 734 795
3 807 814 813
3 800 797 796
3 808 801 809
3 800 737 797
3 803 797 745
3 746 751 744
3 802 757 803
3 757 802 758
3 805 804 756
3 756 750 805
3 750 806 805
3 755 756 804
3 806 799 798
3 798 812 806
3 807 794 796
3 798 794 807
3 794 800 796
3 808 796 801
3 803 801 797
3 809 801 757
3 810 757 758
3 745 802 803
3 809 757 810
3 803 757 801
3 767 811 805
3 804 754 755
3 811 804 805
3 761 804 811
3 806 812 805
3 807 813 798
3 812 798 813
3 807 808 814
3 807 796 808
3 809 810 816
3 814 808 815
3 809 816 815
3 815 808 809
3 817 758 763
3 810 758 817
3 810 817 816
3 766 698 761
3 768 767 818
3 767 813 818
3 812 767 805
3 818 814 773
3 767 812 813
3 818 813 814
3 773 819 820
3 819 814 815
3 815 816 821
3 827 821 776
3 827 776 822
3 819 815 821
3 776 816 817
3 763 762 770
3 763 770 823
3 771 706 768
3 774 772 824
3 771 773 824
3 819 773 814
3 819 821 820
3 824 826 774
3 782 825 783
3 825 787 785
3 787 826 827
3 816 776 821
3 822 787 827
3 823 776 817
3 775 777 778
3 823 822 776
3 782 774 825
3 781 774 782
3 780 781 782
3 826 824 820
3 826 820 827
3 777 786 785
3 827 820 821
3 777 785 787
