ply
format ascii 1.0
element vertex 464
property float32 x
property float32 y
property float32 z
element face 924
property list uint8 int32 vertex_indices
end_header
-0.026353 -0.257277 -0.947390
-0.205859 -0.324645 -0.906304
-0.079545 -0.413227 -0.890948
0.150287 -0.203299 -0.948865
0.089980 -0.374383 -0.906052
0.243143 -0.344698 -0.890499
-0.271445 -0.038596 -0.943264
-0.418873 -0.096539 -0.886876
-0.320377 -0.218269 -0.904999
-0.152159 -0.156262 -0.956941
0.029158 -0.092279 -0.975555
0.321888 -0.206180 -0.907160
0.219339 -0.040413 -0.955869
0.391872 -0.082823 -0.899708
-0.255516 0.132765 -0.939391
-0.410867 0.072745 -0.892522
-0.108467 0.017197 -0.974254
0.066228 0.068829 -0.975672
0.224296 0.141451 -0.945683
0.374368 0.070928 -0.907648
-0.403104 0.237584 -0.868549
-0.091989 0.183841 -0.959550
-0.247106 0.296962 -0.905537
0.069671 0.236528 -0.950410
0.373605 0.239011 -0.880517
0.227197 0.316099 -0.904346
-0.088662 0.347369 -0.916247
0.071544 0.393842 -0.899810
-0.262132 -0.474469 -0.826956
-0.394281 -0.548475 -0.728624
-0.238851 -0.629754 -0.730333
-0.114463 -0.545792 -0.817131
-0.051003 -0.660983 -0.739392
0.058752 -0.522599 -0.836732
0.114883 -0.639316 -0.750501
0.233089 -0.488341 -0.827540
0.270574 -0.612583 -0.733661
0.402538 -0.509104 -0.750938
-0.494857 -0.230431 -0.824590
-0.609621 -0.290618 -0.728748
-0.507738 -0.418337 -0.743642
-0.382390 -0.368806 -0.833529
0.395073 -0.360314 -0.831455
0.534701 -0.401530 -0.734515
0.497928 -0.219418 -0.825677
0.624426 -0.286629 -0.718358
-0.546203 -0.032452 -0.823787
-0.642222 -0.131764 -0.745535
0.528126 -0.030158 -0.834892
0.640901 -0.122261 -0.748125
-0.548253 0.147381 -0.810587
-0.670914 0.048434 -0.731086
0.518604 0.145671 -0.829039
0.652651 0.059921 -0.745704
-0.535611 0.319472 -0.770911
-0.667764 0.225229 -0.702069
-0.387592 0.399542 -0.817781
0.366415 0.411169 -0.821539
0.502348 0.321266 -0.791032
0.639056 0.234536 -0.724014
-0.502439 0.485038 -0.708031
-0.233746 0.457311 -0.843898
-0.346006 0.558718 -0.744224
-0.079538 0.503742 -0.845954
0.072569 0.538876 -0.825922
0.222548 0.480759 -0.834425
0.602165 0.403819 -0.682320
0.471457 0.501677 -0.717119
-0.182646 0.614022 -0.757705
-0.016577 0.654193 -0.746525
0.164419 0.640516 -0.740796
0.324368 0.580663 -0.737553
-0.458901 -0.655305 -0.598245
-0.578164 -0.662558 -0.482118
-0.434243 -0.776916 -0.463280
-0.326210 -0.712263 -0.618582
-0.248628 -0.818050 -0.521732
-0.144852 -0.753860 -0.636916
-0.048898 -0.850897 -0.525872
0.041536 -0.764365 -0.639357
0.141166 -0.845046 -0.519011
0.213226 -0.737110 -0.637279
0.326713 -0.778194 -0.538340
0.395093 -0.653605 -0.641328
0.421121 -0.814811 -0.410375
0.497422 -0.692741 -0.525065
-0.662771 -0.403189 -0.627580
-0.811288 -0.452842 -0.384313
-0.693581 -0.517995 -0.504902
-0.560512 -0.537167 -0.626907
0.541376 -0.545498 -0.635903
0.643156 -0.579618 -0.504684
0.676726 -0.421134 -0.601932
0.763266 -0.483702 -0.437812
-0.740356 -0.232810 -0.627203
-0.783317 -0.351782 -0.516006
0.740161 -0.230397 -0.628256
0.798317 -0.329931 -0.507885
-0.765253 -0.066884 -0.636326
-0.850060 -0.176874 -0.500675
0.757618 -0.041123 -0.646897
0.837824 -0.133514 -0.531785
-0.777953 0.115351 -0.614931
-0.859927 -0.007675 -0.513996
0.759579 0.144138 -0.630639
0.849178 0.062805 -0.527097
-0.764626 0.294979 -0.572797
-0.859385 0.182250 -0.483582
0.741315 0.308804 -0.594382
0.843632 0.245843 -0.483191
-0.644032 0.396050 -0.649835
-0.736867 0.455377 -0.504000
-0.449190 0.635477 -0.624739
0.566127 0.573626 -0.590696
0.692063 0.455443 -0.560575
0.799944 0.420827 -0.437310
-0.603794 0.550911 -0.575744
-0.375914 0.765858 -0.524587
-0.543487 0.687374 -0.487359
-0.281505 0.702171 -0.649359
-0.107704 0.749154 -0.648966
0.075960 0.761319 -0.639800
0.253480 0.725285 -0.636174
0.420029 0.660686 -0.619192
0.683584 0.574010 -0.458578
0.521362 0.708189 -0.482025
-0.465457 0.802364 -0.387751
-0.199702 0.822505 -0.534770
-0.018589 0.851600 -0.526631
0.172262 0.840763 -0.516714
0.342942 0.787681 -0.515351
0.414905 0.826990 -0.393032
-0.297862 -0.880370 -0.383679
-0.422018 -0.862121 -0.304946
-0.246734 -0.948372 -0.237339
-0.138166 -0.907455 -0.408875
-0.079704 -0.963037 -0.285097
0.057886 -0.923001 -0.393956
0.064483 -0.984360 -0.210351
0.261455 -0.879758 -0.409140
0.196676 -0.944632 -0.289656
0.362545 -0.908335 -0.244715
-0.583373 -0.751415 -0.329292
-0.525506 -0.837948 -0.198397
0.506805 -0.821926 -0.287370
0.587756 -0.713749 -0.394423
-0.812428 -0.537627 -0.258623
-0.702148 -0.616796 -0.371617
0.716283 -0.622422 -0.335642
0.822325 -0.525360 -0.252836
-0.882507 -0.295311 -0.380903
-0.947559 -0.232079 -0.253759
-0.902711 -0.394426 -0.216223
0.889263 -0.231590 -0.406731
0.865552 -0.387673 -0.337041
0.941976 -0.275996 -0.230904
-0.934207 -0.102469 -0.358991
-0.989519 -0.087187 -0.177247
0.913809 -0.037450 -0.415860
0.954962 -0.128083 -0.293940
-0.925551 0.060827 -0.387866
-0.976847 0.061366 -0.241846
0.923286 0.133854 -0.375492
0.975690 0.033091 -0.251264
-0.845619 0.346149 -0.417618
-0.927642 0.221980 -0.322301
0.907980 0.293670 -0.321015
0.969691 0.196015 -0.197418
-0.903538 0.373711 -0.245625
-0.808264 0.495584 -0.337845
0.858752 0.505092 -0.161046
0.862206 0.431375 -0.292127
-0.687733 0.599378 -0.420606
-0.616652 0.725667 -0.326570
0.640530 0.683484 -0.366542
0.767957 0.577323 -0.302295
-0.524424 0.832288 -0.222107
-0.289064 0.872535 -0.406207
-0.376712 0.893574 -0.273996
-0.119369 0.915887 -0.396559
0.073836 0.920336 -0.397306
0.256658 0.899055 -0.370693
0.544288 0.791391 -0.303099
0.412073 0.888626 -0.238982
-0.224321 0.951898 -0.244872
-0.034073 0.971753 -0.265123
0.130662 0.970658 -0.239392
0.278034 0.948626 -0.201034
-0.382113 -0.924713 -0.133784
-0.240563 -0.979450 -0.052446
-0.094243 -0.997316 -0.125001
0.077708 -1.005940 -0.045111
0.231752 -0.974410 -0.126266
0.379417 -0.934151 -0.057553
-0.722720 -0.670358 -0.213497
-0.759103 -0.665316 -0.034050
-0.642744 -0.767677 -0.128975
-0.517373 -0.866731 -0.033882
0.512819 -0.858724 -0.136287
0.646974 -0.773647 -0.053234
0.640893 -0.745619 -0.224286
0.754013 -0.653827 -0.150603
-0.844829 -0.542188 -0.108096
0.847741 -0.544976 -0.064741
-0.972432 -0.254070 -0.096740
-0.924815 -0.404547 -0.033231
0.908247 -0.414937 -0.147256
0.971074 -0.270789 -0.059850
-1.005406 -0.096189 -0.004337
0.993337 -0.116320 -0.136770
-1.004811 0.068469 -0.073786
1.004861 0.051334 -0.085340
-0.971305 0.224406 -0.157435
0.985903 0.218046 -0.023073
-0.934344 0.376472 -0.071208
-0.852793 0.515314 -0.160359
0.875642 0.503312 -0.006408
0.935828 0.355645 -0.129659
-0.746210 0.630639 -0.248494
-0.774986 0.643717 -0.069567
0.675470 0.720158 -0.206363
0.779219 0.631568 -0.115040
-0.658582 0.749540 -0.152115
-0.534143 0.855078 -0.058612
-0.385988 0.924894 -0.121576
0.393726 0.927836 -0.062980
0.545483 0.838458 -0.135676
0.674761 0.750647 -0.035554
-0.249065 0.977151 -0.055380
-0.107110 0.995514 -0.128718
0.054494 1.004663 -0.085680
0.213254 0.985640 -0.054456
-0.378563 -0.934691 0.054518
-0.230335 -0.975135 0.123399
-0.076175 -1.006181 0.042420
0.095753 -0.997520 0.122357
0.241875 -0.979260 0.050053
0.382953 -0.924743 0.131308
-0.754523 -0.654869 0.143783
-0.647387 -0.773727 0.047053
-0.512425 -0.859663 0.132039
0.517616 -0.866721 0.030454
0.640768 -0.769882 0.125820
0.755651 -0.669367 0.031518
-0.851969 -0.538248 0.065472
0.840025 -0.548849 0.111645
-0.974282 -0.255989 0.071041
-0.913185 -0.402854 0.150062
0.920196 -0.414374 0.039394
0.969155 -0.262023 0.107167
-0.989700 -0.099873 0.169837
1.004142 -0.105215 0.026441
-1.003323 0.062634 0.094754
1.004604 0.064493 0.079582
-0.984329 0.225658 0.016496
0.972410 0.222308 0.153773
-0.932117 0.372745 0.107763
-0.868865 0.514621 0.018221
0.854235 0.512416 0.161868
0.938571 0.368076 0.059162
-0.775735 0.637636 0.105271
0.779252 0.639408 0.061667
-0.666000 0.759070 0.018702
-0.532101 0.851442 0.106428
-0.395981 0.927532 0.053125
0.417814 0.914228 0.095743
0.549372 0.846977 0.029664
0.661393 0.749647 0.139620
-0.243821 0.973021 0.114390
-0.081574 1.006017 0.036169
0.089732 1.001006 0.097260
0.266776 0.969358 0.093528
-0.361371 -0.909781 0.241266
-0.195310 -0.945868 0.286713
-0.062849 -0.985069 0.207676
0.081752 -0.963692 0.282456
0.247902 -0.948513 0.235657
0.420644 -0.862993 0.304412
-0.640826 -0.747791 0.217556
-0.588340 -0.717280 0.387512
-0.505803 -0.824098 0.283142
0.524710 -0.838745 0.197207
0.580703 -0.753487 0.329278
0.718508 -0.674677 0.214074
-0.822540 -0.528431 0.246063
-0.716729 -0.625808 0.328746
0.699065 -0.619186 0.373343
0.808533 -0.541458 0.262560
-0.945288 -0.255844 0.239839
-0.865686 -0.394990 0.328612
0.898837 -0.399594 0.222396
0.944266 -0.235744 0.262003
-0.940508 -0.106105 0.342111
0.986474 -0.089629 0.191509
-0.971525 0.054372 0.262711
0.975773 0.061988 0.245748
-0.966896 0.217199 0.189284
0.928096 0.223866 0.319830
-0.799275 0.484740 0.371155
-0.850441 0.505190 0.198026
0.808020 0.498666 0.334103
0.906071 0.373028 0.237684
-0.659430 0.740593 0.186121
-0.741575 0.620799 0.282556
-0.608003 0.718189 0.356073
0.746163 0.633840 0.240841
0.686451 0.606902 0.412338
0.615123 0.731908 0.315999
-0.522249 0.823228 0.256125
-0.377430 0.906029 0.231200
0.364554 0.905972 0.250100
0.526718 0.834481 0.208851
-0.211722 0.944772 0.279044
-0.079485 0.986353 0.196253
0.042070 0.968707 0.274376
0.200894 0.955693 0.250054
-0.259729 -0.881724 0.406181
-0.056045 -0.924412 0.391083
0.138253 -0.908049 0.407604
0.296522 -0.880494 0.384388
-0.498867 -0.697233 0.518130
-0.419805 -0.817479 0.406630
-0.324688 -0.781389 0.535125
-0.138219 -0.847660 0.515734
0.050126 -0.851047 0.525533
0.247308 -0.817369 0.523326
0.431790 -0.777681 0.464230
0.575733 -0.664121 0.482832
-0.763417 -0.489013 0.431969
-0.643916 -0.584631 0.498286
0.690801 -0.519429 0.507099
0.807987 -0.454714 0.388754
-0.886043 -0.251126 0.402410
-0.796041 -0.340028 0.504970
0.780437 -0.351826 0.520070
0.879243 -0.296666 0.386969
-0.909915 0.029475 0.424414
-0.849035 -0.142377 0.512527
0.930994 -0.102505 0.366756
0.847348 -0.175562 0.505417
-0.919169 0.198307 0.357741
-0.829021 0.011820 0.559703
0.924393 0.062397 0.390223
0.857955 -0.003573 0.517132
-0.898259 0.357825 0.283248
-0.843066 0.177402 0.511520
0.846893 0.350772 0.411510
0.859701 0.187287 0.481235
-0.833148 0.335408 0.448343
0.736508 0.462735 0.498150
-0.674663 0.592085 0.449285
-0.523550 0.693609 0.499442
0.540227 0.699605 0.474206
0.602873 0.562186 0.566313
-0.443000 0.813935 0.389808
-0.283202 0.877740 0.399477
-0.358269 0.772955 0.526411
-0.085309 0.921511 0.392545
-0.178205 0.835057 0.523485
0.109055 0.910659 0.410451
0.006859 0.849644 0.529863
0.285216 0.878771 0.395982
0.198500 0.823933 0.533118
0.458859 0.815436 0.369025
-0.398158 -0.660342 0.632991
-0.209201 -0.742002 0.633177
-0.040008 -0.764445 0.639359
0.143357 -0.751673 0.639663
0.323825 -0.710852 0.621284
0.456991 -0.656402 0.598490
-0.675042 -0.428582 0.598753
-0.543358 -0.550018 0.630622
-0.406700 -0.517682 0.743267
-0.274257 -0.625191 0.722270
-0.114233 -0.638576 0.751187
0.046782 -0.657455 0.742609
0.234943 -0.627397 0.733429
0.393735 -0.548044 0.729207
0.558441 -0.537912 0.628044
0.660944 -0.403223 0.629371
-0.744037 -0.238766 0.620960
-0.627184 -0.295695 0.712612
-0.531011 -0.405318 0.735076
0.507539 -0.416888 0.744536
0.609449 -0.288637 0.729625
0.738600 -0.230693 0.629884
-0.740525 -0.074839 0.662502
-0.623829 -0.142798 0.758219
0.763938 -0.062638 0.638218
0.641946 -0.127275 0.746493
-0.744255 0.118186 0.652546
-0.638874 0.039084 0.758136
0.778385 0.122260 0.613157
0.672648 0.055843 0.729085
-0.742686 0.288655 0.602254
-0.634021 0.221308 0.732058
0.765845 0.302733 0.567428
0.669838 0.234701 0.697270
-0.720212 0.447465 0.532532
-0.583759 0.551869 0.594044
-0.620396 0.392860 0.672900
-0.481244 0.485787 0.721287
0.449258 0.645094 0.615342
0.503739 0.495254 0.700462
0.347303 0.566919 0.737787
0.644773 0.406211 0.643203
-0.430425 0.640930 0.631892
-0.262995 0.717304 0.641038
-0.329043 0.569003 0.744130
-0.083603 0.755752 0.645095
-0.170332 0.634543 0.744369
0.103251 0.752033 0.646506
0.014019 0.654144 0.746616
0.281598 0.707965 0.643370
0.182318 0.619935 0.753232
0.375097 0.774222 0.513460
-0.239911 -0.502148 0.817868
-0.066476 -0.512592 0.841999
0.106033 -0.544398 0.819076
0.262947 -0.474820 0.826523
-0.485818 -0.234963 0.828437
-0.382444 -0.372063 0.832143
-0.215212 -0.369086 0.888060
-0.067529 -0.362377 0.912463
0.089815 -0.411272 0.890881
0.214373 -0.319029 0.906323
0.384470 -0.366744 0.833485
0.497075 -0.226308 0.824409
-0.512105 -0.044705 0.843630
-0.374719 -0.102679 0.904648
-0.304876 -0.228516 0.907654
0.327136 -0.210937 0.904359
0.425095 -0.088748 0.884852
0.549759 -0.024425 0.821818
-0.512115 0.135523 0.834440
-0.367313 0.059674 0.911118
0.551984 0.157225 0.806451
0.416451 0.082697 0.889263
-0.507083 0.314518 0.790740
-0.367565 0.401471 0.825561
-0.373227 0.231294 0.882606
-0.225438 0.309890 0.906781
0.390143 0.408983 0.812225
0.406743 0.247435 0.864351
0.250613 0.305677 0.901891
0.537999 0.329671 0.765282
-0.222280 0.473457 0.838414
-0.073075 0.537416 0.826775
-0.068915 0.392555 0.900532
0.080739 0.506768 0.844143
0.091899 0.351731 0.914378
0.235791 0.465060 0.839363
-0.142285 -0.205166 0.949647
0.042741 -0.247346 0.949317
-0.211353 -0.046390 0.957307
-0.021394 -0.089662 0.975974
0.164058 -0.146027 0.956612
0.279753 -0.027970 0.941330
-0.220767 0.136711 0.947120
-0.061178 0.069943 0.975908
0.114415 0.024089 0.973476
0.260185 0.142248 0.936874
-0.066055 0.236309 0.950704
0.096258 0.189500 0.958117
3 2 1 0
3 4 2 0
3 4 0 3
3 5 4 3
3 8 7 6
3 1 8 9
3 1 9 0
3 8 6 9
3 10 3 0
3 10 0 9
3 11 5 3
3 11 3 12
3 12 3 10
3 13 11 12
3 15 14 6
3 15 6 7
3 16 9 6
3 16 6 14
3 16 10 9
3 17 10 16
3 17 12 10
3 18 12 17
3 19 13 12
3 19 12 18
3 15 20 14
3 21 16 14
3 21 14 22
3 22 14 20
3 21 17 16
3 23 17 21
3 24 18 25
3 18 23 25
3 18 17 23
3 24 19 18
3 22 26 21
3 27 23 26
3 23 21 26
3 27 25 23
3 30 29 28
3 31 30 28
3 32 30 31
3 33 32 31
3 34 32 33
3 36 34 35
3 34 33 35
3 37 36 35
3 40 39 38
3 41 40 38
3 29 40 41
3 28 29 41
3 28 41 1
3 28 1 2
3 31 28 2
3 33 31 2
3 33 2 4
3 35 4 5
3 33 4 35
3 42 35 5
3 42 37 35
3 43 37 42
3 44 43 42
3 45 43 44
3 47 46 38
3 47 38 39
3 38 46 7
3 38 7 8
3 41 38 8
3 1 41 8
3 11 42 5
3 44 42 11
3 44 11 13
3 48 44 13
3 49 45 44
3 49 44 48
3 51 50 46
3 51 46 47
3 46 50 15
3 46 15 7
3 48 13 19
3 48 19 52
3 53 49 48
3 53 48 52
3 55 54 50
3 55 50 51
3 54 20 50
3 56 20 54
3 20 15 50
3 56 22 20
3 57 24 25
3 52 24 58
3 19 24 52
3 58 24 57
3 59 53 52
3 59 52 58
3 110 60 54
3 61 56 62
3 56 60 62
3 56 54 60
3 63 26 61
3 26 22 61
3 61 22 56
3 64 27 63
3 27 26 63
3 65 25 27
3 57 25 65
3 65 27 64
3 66 58 67
3 58 57 67
3 67 57 71
3 66 59 58
3 62 68 61
3 68 63 61
3 69 63 68
3 69 64 63
3 70 64 69
3 71 65 70
3 65 64 70
3 71 57 65
3 74 73 72
3 75 74 72
3 76 74 75
3 78 76 77
3 76 75 77
3 79 78 77
3 80 78 79
3 81 80 79
3 82 80 81
3 83 82 81
3 84 82 85
3 85 82 83
3 88 95 86
3 89 88 86
3 73 88 89
3 72 73 89
3 72 89 29
3 72 29 75
3 75 29 30
3 77 75 30
3 77 30 32
3 79 77 32
3 79 32 34
3 81 79 34
3 81 34 36
3 83 81 36
3 83 36 37
3 90 83 37
3 90 85 83
3 91 85 90
3 92 91 90
3 93 91 92
3 95 94 86
3 95 88 87
3 86 94 39
3 86 39 40
3 89 86 40
3 29 89 40
3 43 90 37
3 92 90 43
3 92 43 45
3 96 92 45
3 97 93 92
3 97 92 96
3 99 98 94
3 99 94 95
3 94 98 47
3 94 47 39
3 96 45 49
3 96 49 100
3 101 97 96
3 101 96 100
3 103 102 98
3 103 98 99
3 98 102 51
3 98 51 47
3 100 49 53
3 100 53 104
3 105 101 100
3 105 100 104
3 107 106 102
3 107 102 103
3 102 106 55
3 102 55 51
3 104 53 59
3 104 59 108
3 109 105 104
3 109 104 108
3 111 110 106
3 111 106 164
3 110 55 106
3 112 60 116
3 54 55 110
3 112 62 60
3 113 66 67
3 108 66 114
3 59 66 108
3 114 66 113
3 115 109 108
3 115 108 114
3 111 116 110
3 116 60 110
3 117 112 118
3 118 112 116
3 119 112 117
3 68 62 119
3 119 62 112
3 120 69 68
3 120 68 119
3 121 70 69
3 121 69 120
3 122 71 70
3 122 70 121
3 123 67 71
3 113 67 123
3 123 71 122
3 124 114 113
3 124 113 125
3 125 113 123
3 124 115 114
3 118 126 117
3 127 119 117
3 127 117 177
3 128 120 127
3 120 119 127
3 128 121 120
3 129 121 128
3 129 122 121
3 130 122 129
3 125 123 130
3 123 122 130
3 131 125 130
3 134 133 132
3 136 134 135
3 134 132 135
3 137 136 135
3 138 136 137
3 140 138 137
3 140 137 139
3 141 140 139
3 74 142 73
3 143 142 133
3 133 142 74
3 133 74 132
3 132 74 76
3 135 76 78
3 132 76 135
3 137 135 78
3 137 78 80
3 139 137 80
3 139 80 82
3 141 84 144
3 139 84 141
3 139 82 84
3 145 144 84
3 145 84 85
3 147 146 87
3 147 87 88
3 142 147 73
3 147 88 73
3 148 145 91
3 145 85 91
3 93 148 91
3 149 148 93
3 152 151 150
3 152 87 146
3 150 87 152
3 150 95 87
3 149 93 154
3 93 97 154
3 154 97 153
3 155 154 153
3 157 156 151
3 156 150 151
3 150 156 99
3 150 99 95
3 153 97 101
3 153 101 158
3 159 155 153
3 159 153 158
3 161 160 156
3 161 156 157
3 156 160 103
3 156 103 99
3 158 101 105
3 158 105 162
3 163 159 158
3 163 158 162
3 165 107 160
3 165 160 161
3 160 107 103
3 164 107 165
3 162 109 166
3 105 109 162
3 167 163 162
3 167 162 166
3 165 168 164
3 168 169 164
3 169 111 164
3 164 106 107
3 166 109 115
3 166 115 171
3 171 175 170
3 217 167 166
3 172 116 111
3 172 111 169
3 173 118 172
3 118 116 172
3 175 124 174
3 124 125 174
3 175 115 124
3 171 115 175
3 173 126 118
3 176 126 173
3 177 117 126
3 177 126 178
3 178 126 176
3 179 127 177
3 128 127 179
3 180 129 128
3 180 128 179
3 181 130 129
3 181 129 180
3 182 131 183
3 131 130 181
3 183 131 181
3 174 125 182
3 125 131 182
3 178 184 177
3 185 179 184
3 179 177 184
3 185 180 179
3 186 180 185
3 186 181 180
3 187 181 186
3 187 183 181
3 189 188 134
3 188 133 134
3 190 189 134
3 190 134 136
3 138 190 136
3 191 190 138
3 192 138 140
3 191 138 192
3 141 192 140
3 193 192 141
3 196 195 194
3 196 194 142
3 196 143 197
3 196 142 143
3 188 143 133
3 197 143 188
3 198 193 141
3 198 141 144
3 200 198 144
3 199 198 200
3 200 144 145
3 201 199 200
3 194 202 146
3 195 202 194
3 194 146 147
3 142 194 147
3 148 200 145
3 201 200 148
3 201 149 203
3 201 148 149
3 152 204 151
3 205 204 152
3 202 205 152
3 202 152 146
3 206 149 154
3 203 149 206
3 207 206 155
3 206 154 155
3 204 157 151
3 208 157 204
3 207 155 209
3 155 159 209
3 157 210 161
3 208 210 157
3 209 159 163
3 209 163 211
3 210 212 161
3 212 165 161
3 211 163 167
3 211 167 213
3 212 168 165
3 214 168 212
3 215 169 168
3 215 168 214
3 217 170 216
3 171 170 217
3 213 167 217
3 166 171 217
3 218 172 169
3 218 169 215
3 219 218 215
3 218 173 172
3 220 175 174
3 216 170 221
3 170 175 221
3 221 175 220
3 219 222 218
3 223 176 222
3 176 173 222
3 222 173 218
3 224 176 223
3 178 176 224
3 226 182 183
3 226 183 225
3 220 174 182
3 220 182 226
3 227 220 226
3 227 221 220
3 228 184 224
3 184 178 224
3 229 185 184
3 229 184 228
3 230 186 185
3 230 185 229
3 231 186 230
3 187 186 231
3 225 183 187
3 225 187 231
3 189 232 188
3 233 232 189
3 234 233 189
3 234 189 190
3 235 234 191
3 234 190 191
3 236 235 191
3 236 191 192
3 193 236 192
3 237 236 193
3 239 238 195
3 239 195 196
3 197 239 196
3 240 239 197
3 232 240 197
3 232 197 188
3 241 237 193
3 241 193 198
3 199 241 198
3 242 241 199
3 243 242 199
3 243 199 201
3 195 244 202
3 238 244 195
3 243 201 203
3 243 203 245
3 205 246 204
3 247 246 205
3 244 247 205
3 244 205 202
3 248 245 203
3 248 203 206
3 207 248 206
3 249 248 207
3 246 250 208
3 246 208 204
3 251 207 209
3 249 207 251
3 208 252 210
3 250 252 208
3 251 209 211
3 251 211 253
3 210 254 212
3 252 254 210
3 253 211 213
3 253 213 255
3 254 214 212
3 256 214 254
3 257 215 214
3 257 214 256
3 259 217 216
3 259 216 258
3 259 213 217
3 255 213 259
3 257 260 219
3 257 219 215
3 261 216 221
3 258 216 261
3 262 222 219
3 262 219 260
3 262 223 222
3 263 223 262
3 264 224 223
3 264 223 263
3 266 226 225
3 266 225 265
3 266 227 226
3 267 227 266
3 261 221 227
3 261 227 267
3 264 228 224
3 268 228 264
3 269 229 228
3 269 228 268
3 270 230 269
3 230 229 269
3 271 231 270
3 231 230 270
3 271 225 231
3 265 225 271
3 233 272 232
3 273 272 233
3 274 233 234
3 273 233 274
3 235 274 234
3 275 274 235
3 276 275 235
3 276 235 236
3 277 276 237
3 276 236 237
3 239 278 238
3 240 278 239
3 279 278 280
3 280 278 240
3 272 280 240
3 272 240 232
3 281 237 241
3 277 237 281
3 282 281 242
3 282 242 283
3 281 241 242
3 243 283 242
3 285 284 238
3 285 238 278
3 284 244 238
3 279 285 278
3 286 282 283
3 283 243 245
3 283 287 286
3 283 245 287
3 289 288 247
3 288 246 247
3 284 247 244
3 289 247 284
3 290 287 245
3 290 245 248
3 249 290 248
3 291 290 249
3 288 292 250
3 288 250 246
3 291 249 293
3 249 251 293
3 250 294 252
3 292 294 250
3 293 251 253
3 293 253 295
3 294 296 252
3 296 254 252
3 295 255 297
3 253 255 295
3 299 256 344
3 256 254 296
3 299 344 298
3 257 256 299
3 301 259 258
3 301 258 300
3 301 255 259
3 297 255 301
3 303 302 260
3 303 260 299
3 299 260 257
3 303 304 302
3 307 306 305
3 305 258 261
3 300 305 306
3 300 258 305
3 302 262 260
3 302 263 262
3 308 302 304
3 308 263 302
3 309 264 263
3 309 263 308
3 311 265 310
3 266 265 311
3 305 267 307
3 267 266 311
3 307 267 311
3 305 261 267
3 309 268 264
3 312 268 309
3 313 268 312
3 269 268 313
3 313 270 269
3 314 270 313
3 315 271 270
3 315 270 314
3 310 271 315
3 265 271 310
3 273 316 272
3 317 316 273
3 317 273 274
3 275 317 274
3 318 317 275
3 319 318 276
3 318 275 276
3 277 319 276
3 321 320 279
3 321 279 280
3 322 321 316
3 321 280 272
3 316 321 272
3 323 322 316
3 323 316 317
3 324 323 317
3 324 317 318
3 325 318 319
3 324 318 325
3 325 319 326
3 319 277 326
3 326 277 282
3 282 277 281
3 327 326 282
3 285 328 284
3 329 328 285
3 320 329 279
3 329 285 279
3 330 327 286
3 327 282 286
3 331 330 286
3 331 286 287
3 289 332 288
3 333 289 328
3 332 289 333
3 328 289 284
3 334 331 335
3 331 287 290
3 335 331 290
3 291 335 290
3 337 336 292
3 332 292 288
3 337 292 332
3 337 332 333
3 339 334 335
3 339 335 338
3 335 291 338
3 291 293 338
3 336 340 294
3 336 294 292
3 345 340 336
3 341 336 337
3 343 339 338
3 343 338 342
3 338 293 295
3 338 295 342
3 340 344 296
3 340 296 294
3 345 336 341
3 344 340 348
3 347 297 346
3 343 342 347
3 342 295 297
3 342 297 347
3 344 256 296
3 303 299 298
3 348 340 345
3 348 298 344
3 346 300 349
3 346 396 347
3 301 300 346
3 346 297 301
3 350 303 298
3 350 298 398
3 351 304 350
3 304 303 350
3 353 306 352
3 306 307 352
3 349 300 306
3 349 306 353
3 354 308 304
3 354 304 351
3 355 309 354
3 355 354 356
3 309 308 354
3 358 357 355
3 358 355 356
3 360 359 357
3 360 357 358
3 362 359 360
3 361 359 362
3 363 311 310
3 363 361 415
3 363 310 361
3 363 307 311
3 352 307 363
3 355 312 309
3 357 313 312
3 357 312 355
3 357 314 313
3 359 314 357
3 361 315 359
3 315 314 359
3 361 310 315
3 322 364 320
3 322 320 321
3 365 364 322
3 323 365 322
3 366 365 323
3 324 366 323
3 367 366 324
3 368 367 325
3 367 324 325
3 326 368 325
3 369 368 326
3 327 369 326
3 329 370 328
3 371 370 329
3 371 329 320
3 364 371 320
3 372 371 364
3 372 364 373
3 373 364 365
3 374 373 365
3 374 365 366
3 375 374 366
3 375 366 367
3 376 375 367
3 376 367 368
3 377 376 368
3 377 368 369
3 378 377 369
3 378 369 327
3 378 327 330
3 379 378 330
3 334 379 330
3 370 380 333
3 370 333 328
3 381 380 370
3 381 370 382
3 382 370 371
3 372 382 371
3 383 377 378
3 379 383 378
3 384 383 379
3 385 384 379
3 330 331 334
3 379 334 385
3 380 386 337
3 380 337 333
3 387 386 380
3 387 380 381
3 389 384 385
3 389 385 388
3 385 334 339
3 385 339 388
3 386 390 341
3 386 341 337
3 391 390 386
3 391 386 387
3 393 389 388
3 393 388 392
3 388 339 343
3 388 343 392
3 390 394 345
3 390 345 341
3 395 394 390
3 395 390 391
3 397 393 392
3 397 392 396
3 392 343 347
3 392 347 396
3 394 398 348
3 394 348 345
3 400 398 394
3 399 398 400
3 400 394 395
3 400 401 399
3 404 403 402
3 403 353 402
3 405 445 397
3 396 405 397
3 396 346 349
3 396 349 405
3 398 298 348
3 399 351 350
3 406 351 399
3 399 350 398
3 401 406 399
3 407 406 408
3 408 406 401
3 410 409 407
3 410 407 408
3 412 411 409
3 412 409 410
3 414 413 411
3 414 411 412
3 402 415 413
3 402 413 404
3 404 413 414
3 402 353 352
3 405 353 403
3 402 352 415
3 405 349 353
3 356 354 351
3 406 356 351
3 407 356 406
3 407 358 356
3 409 358 407
3 409 360 358
3 411 360 409
3 413 362 411
3 362 360 411
3 415 361 362
3 415 362 413
3 415 352 363
3 373 416 372
3 417 416 374
3 416 373 374
3 375 417 374
3 418 417 375
3 376 418 375
3 419 418 376
3 377 419 376
3 382 420 381
3 421 420 382
3 421 372 416
3 421 382 372
3 422 421 416
3 422 417 423
3 422 416 417
3 424 423 417
3 424 417 418
3 419 424 418
3 425 424 419
3 426 425 419
3 426 419 377
3 426 383 427
3 426 377 383
3 384 427 383
3 420 428 387
3 420 387 381
3 429 428 420
3 429 420 430
3 430 420 421
3 422 430 421
3 431 425 426
3 427 431 426
3 432 431 427
3 433 432 427
3 427 384 389
3 427 389 433
3 428 434 391
3 428 391 387
3 435 434 428
3 435 428 429
3 437 432 433
3 437 433 436
3 433 389 393
3 433 393 436
3 434 438 395
3 434 395 391
3 440 438 434
3 439 438 440
3 440 434 435
3 440 441 439
3 444 443 442
3 443 445 442
3 436 443 437
3 436 445 443
3 436 393 397
3 436 397 445
3 438 400 395
3 408 401 439
3 401 438 439
3 401 400 438
3 441 446 439
3 447 446 448
3 448 446 441
3 450 449 448
3 449 447 448
3 450 451 449
3 442 451 444
3 444 451 450
3 445 403 442
3 403 404 442
3 442 404 451
3 445 405 403
3 446 408 439
3 447 410 446
3 410 408 446
3 447 412 410
3 449 412 447
3 449 414 412
3 451 414 449
3 451 404 414
3 423 452 422
3 453 452 423
3 453 423 424
3 425 453 424
3 430 454 429
3 455 454 452
3 454 430 452
3 452 430 422
3 453 455 452
3 456 455 453
3 456 431 457
3 453 425 456
3 456 425 431
3 432 457 431
3 454 458 435
3 454 435 429
3 459 458 454
3 459 454 455
3 460 459 455
3 460 455 456
3 457 460 456
3 461 460 457
3 457 432 437
3 457 437 461
3 458 440 435
3 462 441 458
3 462 458 459
3 441 440 458
3 463 462 459
3 463 459 460
3 461 443 444
3 461 463 460
3 461 444 463
3 461 437 443
3 462 448 441
3 463 450 462
3 450 448 462
3 463 444 450
