ply
format ascii 1.0
element vertex 456
property float32 x
property float32 y
property float32 z
element face 908
property list uint8 int32 vertex_indices
end_header
-0.093502 -0.223045 -1.265396
-0.245706 -0.258881 -1.197956
-0.148346 -0.384471 -1.154455
0.069287 -0.250055 -1.256956
0.009429 -0.377823 -1.182304
0.187220 -0.346542 -1.169691
-0.243325 -0.097281 -1.255664
-0.385048 -0.137181 -1.157321
-0.377473 -0.284328 -1.097158
-0.091123 -0.042476 -1.310690
0.066612 -0.099581 -1.306779
0.224152 -0.179963 -1.242189
0.230625 -0.009786 -1.270353
0.365227 -0.092280 -1.183256
-0.238816 0.075657 -1.261330
-0.380452 0.023501 -1.179796
-0.081252 0.131576 -1.297930
0.076012 0.066648 -1.310589
0.232530 0.159781 -1.245126
0.375504 0.076686 -1.178172
-0.361708 0.189349 -1.157730
-0.057900 0.291631 -1.236577
-0.214752 0.244244 -1.219519
0.082165 0.231425 -1.263670
0.346974 0.246544 -1.142542
0.190060 0.332285 -1.178527
-0.137417 0.401901 -1.143350
0.049068 0.402863 -1.159790
-0.045743 -0.500395 -1.064629
-0.202676 -0.514784 -1.002097
-0.093928 -0.601198 -0.921647
0.119550 -0.481761 -1.071516
0.058079 -0.595471 -0.937600
0.220059 -0.555662 -0.938593
-0.289786 -0.407364 -1.067532
-0.436022 -0.385406 -0.962108
-0.346032 -0.509523 -0.909673
0.338782 -0.266208 -1.137819
0.284200 -0.427731 -1.051827
0.425651 -0.341872 -1.011707
-0.503061 -0.053848 -1.060677
-0.596506 -0.132858 -0.917437
-0.497690 -0.219771 -1.014159
0.494121 -0.005745 -1.073985
0.471517 -0.166086 -1.067539
0.597895 -0.077184 -0.930526
-0.492164 0.115168 -1.061223
-0.598665 0.033074 -0.935625
0.477590 0.177161 -1.056682
0.575245 0.093610 -0.960833
-0.572274 0.203747 -0.923279
-0.303517 0.351148 -1.105803
-0.451366 0.282489 -1.028869
0.294270 0.394703 -1.076009
0.445263 0.329962 -1.000827
0.572910 0.252757 -0.892595
-0.382736 0.432101 -0.968919
-0.026310 0.511729 -1.053159
-0.215870 0.489281 -1.025976
0.157599 0.493377 -1.046609
0.216561 0.581623 -0.901911
0.340936 0.477650 -0.954891
-0.116022 0.592387 -0.929302
0.055127 0.604960 -0.923271
-0.228059 -0.619527 -0.831458
-0.382727 -0.580579 -0.759097
-0.239437 -0.688695 -0.678444
-0.054658 -0.681167 -0.784981
0.132587 -0.661372 -0.803179
0.303550 -0.607210 -0.794345
0.376713 -0.486103 -0.911189
0.461903 -0.517641 -0.762658
-0.556832 -0.313840 -0.870104
-0.647998 -0.225567 -0.779122
-0.497396 -0.456220 -0.802360
0.544055 -0.233483 -0.947131
0.514592 -0.384569 -0.864347
0.624662 -0.241394 -0.812910
-0.681727 -0.055968 -0.783592
0.683587 -0.091510 -0.771524
-0.669347 0.108220 -0.796028
0.656329 0.080127 -0.829475
-0.518556 0.365866 -0.878101
-0.632426 0.275653 -0.771085
0.490288 0.417463 -0.861605
0.669142 0.224248 -0.735729
-0.564833 0.435880 -0.717496
-0.295782 0.555285 -0.887568
-0.438069 0.510221 -0.807320
0.375462 0.554883 -0.812329
0.493018 0.519478 -0.710918
0.601649 0.364695 -0.740719
-0.199161 0.649846 -0.792650
-0.044238 0.683453 -0.781773
0.122606 0.680130 -0.768482
0.263649 0.652986 -0.739228
-0.093126 -0.739879 -0.633486
-0.185040 -0.764763 -0.499364
0.002946 -0.788202 -0.494099
0.072503 -0.732747 -0.659448
0.157972 -0.769278 -0.505024
0.239986 -0.698724 -0.652769
-0.529116 -0.518764 -0.646695
-0.632633 -0.454700 -0.527826
-0.506443 -0.606328 -0.487095
-0.401370 -0.636451 -0.614012
0.397000 -0.626932 -0.643759
0.468916 -0.636089 -0.486175
0.542841 -0.523459 -0.609046
0.608738 -0.516469 -0.453295
-0.623665 -0.367702 -0.691589
0.595909 -0.393006 -0.716598
-0.743860 0.002740 -0.638712
-0.774825 -0.110424 -0.514943
-0.716899 -0.186784 -0.647153
0.752214 -0.102100 -0.593883
0.693678 -0.246346 -0.659991
0.749387 -0.248753 -0.488728
-0.722615 0.162813 -0.647438
-0.791109 0.067171 -0.471376
0.727477 0.046774 -0.678843
0.784377 0.046854 -0.503356
-0.750866 0.225852 -0.509624
-0.670333 0.339633 -0.616895
0.691743 0.337401 -0.560245
0.736189 0.187292 -0.592254
-0.475931 0.572063 -0.637899
-0.599313 0.489110 -0.547058
0.599764 0.459535 -0.604670
0.631567 0.490628 -0.447158
-0.495800 0.620229 -0.471030
-0.336900 0.629678 -0.715866
-0.176533 0.720836 -0.643531
-0.228161 0.762359 -0.463951
0.034896 0.742548 -0.640103
0.379966 0.640708 -0.635789
0.215187 0.730363 -0.586756
0.505546 0.589334 -0.537080
-0.074214 0.775101 -0.529399
0.089650 0.788796 -0.471715
-0.324795 -0.714851 -0.505592
-0.406698 -0.705098 -0.380197
-0.256964 -0.783041 -0.323226
-0.094405 -0.811265 -0.365663
0.076639 -0.820670 -0.322523
0.237977 -0.781360 -0.365352
0.329407 -0.715725 -0.495319
0.392354 -0.726119 -0.315656
-0.619918 -0.525032 -0.388385
-0.530749 -0.635658 -0.297714
0.527483 -0.628804 -0.343318
0.645034 -0.523236 -0.280663
-0.710850 -0.311050 -0.538939
-0.771848 -0.238316 -0.410758
-0.719180 -0.390883 -0.355807
0.664412 -0.389356 -0.558754
0.713074 -0.390237 -0.385887
0.787860 -0.247537 -0.312560
-0.816019 -0.075737 -0.350300
0.801092 -0.099226 -0.413536
-0.825532 0.081890 -0.287602
0.819443 0.067419 -0.334779
-0.702692 0.381838 -0.447206
-0.784205 0.233415 -0.357666
0.773591 0.216574 -0.431359
0.799406 0.234080 -0.262919
-0.729883 0.395433 -0.283850
-0.623198 0.524690 -0.376665
0.646637 0.520442 -0.284265
0.725937 0.370159 -0.375617
-0.519465 0.645354 -0.295394
-0.347281 0.687029 -0.559672
-0.378976 0.719983 -0.381994
0.371720 0.700013 -0.476899
0.521119 0.626149 -0.376810
0.394577 0.727240 -0.302471
-0.234070 0.795099 -0.292742
-0.070796 0.813015 -0.369127
0.090869 0.823051 -0.298052
0.241631 0.773546 -0.398188
-0.399555 -0.737624 -0.212788
-0.250856 -0.806905 -0.143041
-0.090796 -0.833797 -0.214310
0.074582 -0.841601 -0.144453
0.238939 -0.804301 -0.211308
0.391042 -0.749542 -0.136992
-0.654567 -0.522534 -0.225082
-0.542939 -0.648403 -0.132670
0.528360 -0.654547 -0.189631
0.651135 -0.541063 -0.118099
-0.798337 -0.242562 -0.251977
-0.746725 -0.390778 -0.171544
0.740125 -0.395085 -0.211969
0.808552 -0.246065 -0.140654
-0.838082 -0.080312 -0.181608
0.831195 -0.088221 -0.239775
-0.842491 0.085753 -0.113728
0.839706 0.078589 -0.164538
-0.803489 0.247221 -0.195167
0.811880 0.244391 -0.093593
-0.743395 0.405266 -0.116534
-0.644515 0.537885 -0.207118
0.656859 0.534308 -0.115787
0.743663 0.391128 -0.199424
-0.530529 0.659242 -0.124690
-0.388714 0.743792 -0.209399
0.401994 0.744317 -0.129006
0.536028 0.646035 -0.207311
-0.238689 0.812042 -0.121521
-0.074392 0.836584 -0.203075
0.090226 0.841303 -0.125942
0.249932 0.800007 -0.219790
-0.406569 -0.745845 -0.047223
-0.255316 -0.810489 0.032192
-0.091267 -0.844542 -0.047280
0.072442 -0.846666 0.031758
0.236320 -0.815950 -0.046244
0.390851 -0.754457 0.036010
-0.662927 -0.530647 -0.059135
-0.547063 -0.650189 0.034187
0.531241 -0.663297 -0.028131
0.652109 -0.544448 0.044963
-0.813532 -0.240620 -0.081823
-0.754088 -0.392238 0.004625
0.747606 -0.403365 -0.046323
0.812768 -0.248225 0.026972
-0.846461 -0.077229 -0.010825
0.844693 -0.084073 -0.068301
-0.844502 0.089201 0.057433
0.845923 0.083137 0.005088
-0.811561 0.251915 -0.031679
0.811965 0.246562 0.076520
-0.744827 0.408250 0.050889
-0.651190 0.545762 -0.038188
0.656702 0.538587 0.053246
0.750232 0.399218 -0.026223
-0.531719 0.662509 0.045685
-0.393482 0.753043 -0.038262
0.401021 0.748942 0.043298
0.540228 0.655812 -0.037169
-0.240624 0.814604 0.049830
-0.076872 0.846233 -0.034355
0.086989 0.845014 0.046387
0.250344 0.811786 -0.044997
-0.408896 -0.741138 0.120554
-0.255722 -0.799740 0.205612
-0.094422 -0.841047 0.122592
0.068911 -0.836833 0.205251
0.234112 -0.813379 0.121431
0.386904 -0.745194 0.205422
-0.662906 -0.527319 0.109792
-0.544284 -0.639669 0.202988
0.528477 -0.659763 0.138309
0.644090 -0.538222 0.208190
-0.814272 -0.236895 0.089893
-0.749578 -0.384238 0.177073
0.744799 -0.402384 0.118987
0.804177 -0.245131 0.194696
-0.840500 -0.073377 0.160523
0.843406 -0.083437 0.100795
-0.832354 0.091300 0.226956
0.838431 0.083123 0.174540
-0.806793 0.253762 0.131758
0.799073 0.242109 0.247364
-0.733201 0.405991 0.220145
-0.647305 0.544485 0.130304
0.646549 0.532971 0.221935
0.745103 0.398382 0.144196
-0.525740 0.653135 0.216969
-0.392294 0.749146 0.133540
0.392931 0.740902 0.215058
0.535350 0.654650 0.133066
-0.240739 0.802470 0.222858
-0.079899 0.841658 0.136594
0.081549 0.834220 0.219254
0.245686 0.809535 0.128061
-0.402920 -0.724905 0.289175
-0.249898 -0.774655 0.380279
-0.096171 -0.823042 0.294075
0.063973 -0.811940 0.377738
0.228777 -0.797238 0.288777
0.377676 -0.722916 0.371597
-0.653878 -0.512070 0.280965
-0.530433 -0.619449 0.372150
0.517463 -0.644054 0.310326
0.625974 -0.523144 0.370697
-0.801662 -0.225170 0.265109
-0.734983 -0.364181 0.346127
0.730598 -0.393832 0.284782
0.782751 -0.234538 0.363528
-0.819747 -0.064451 0.334396
0.828061 -0.080475 0.270525
-0.804366 0.103452 0.395314
0.816371 0.079793 0.346126
-0.788552 0.255005 0.293278
0.771672 0.232374 0.419665
-0.710216 0.391191 0.396133
-0.634602 0.531301 0.300755
0.625763 0.517459 0.390288
0.728396 0.389260 0.312219
-0.516651 0.626356 0.390574
-0.388395 0.729781 0.306979
0.378973 0.718901 0.386886
0.521793 0.641919 0.303435
-0.238071 0.774938 0.396832
-0.082266 0.822224 0.309370
0.074421 0.807946 0.393448
0.236520 0.793199 0.300323
-0.391992 -0.694003 0.458588
-0.233850 -0.735427 0.553337
-0.088751 -0.789778 0.468145
0.216325 -0.768081 0.454774
0.221797 -0.713902 0.628217
0.354958 -0.692524 0.531002
-0.629443 -0.491651 0.451650
-0.514762 -0.578062 0.545444
-0.371807 -0.651832 0.619955
0.394436 -0.617938 0.668067
0.494869 -0.614855 0.489998
0.604436 -0.492743 0.525169
-0.701959 -0.353078 0.503429
-0.606592 -0.434392 0.632423
0.652356 -0.368738 0.623039
0.707191 -0.371879 0.450327
-0.774419 -0.200247 0.446531
-0.701742 -0.261492 0.624422
0.742099 -0.225975 0.539577
0.796471 -0.078827 0.444488
-0.785390 -0.017912 0.504033
0.777642 0.076152 0.519658
-0.756530 0.250369 0.459320
-0.749829 0.144944 0.579492
-0.686963 0.329243 0.585559
0.698798 0.373485 0.477876
0.725278 0.222950 0.594929
0.653431 0.352195 0.643085
-0.620445 0.494448 0.473765
0.593077 0.490432 0.560432
-0.495638 0.588834 0.560176
-0.377746 0.695909 0.479961
-0.366734 0.639749 0.656517
-0.235578 0.728334 0.573816
0.364105 0.678181 0.559918
0.339729 0.621954 0.728812
0.211805 0.713173 0.638446
0.500252 0.615334 0.475148
-0.086161 0.786146 0.483793
0.225775 0.761065 0.471820
-0.071791 -0.739478 0.641262
0.070728 -0.767742 0.555748
-0.483766 -0.529176 0.708995
-0.344054 -0.596110 0.774562
-0.213729 -0.678102 0.723396
-0.068661 -0.668815 0.807617
0.085183 -0.701324 0.733969
0.260939 -0.638780 0.770794
0.426830 -0.515246 0.814106
0.523234 -0.517601 0.660339
-0.632698 -0.296996 0.751178
-0.530633 -0.407529 0.814130
0.569048 -0.392222 0.768407
0.680173 -0.230346 0.706200
-0.742523 -0.122906 0.613466
-0.674330 -0.124674 0.779916
0.682135 -0.075528 0.778762
0.747104 -0.071388 0.619691
-0.725739 0.025469 0.686023
-0.658689 0.064000 0.828341
0.717371 0.091075 0.693760
0.649283 0.084232 0.841780
-0.677420 0.207616 0.729203
0.639384 0.251118 0.777425
-0.595550 0.453526 0.625305
-0.598890 0.353519 0.758951
-0.488547 0.514024 0.727723
0.476757 0.564611 0.652261
0.557755 0.429138 0.740284
0.429283 0.506631 0.823982
-0.223773 0.662307 0.750837
-0.088449 0.731544 0.657973
-0.068971 0.656641 0.831300
0.065129 0.764755 0.567213
0.057514 0.701233 0.740637
0.190615 0.648407 0.800519
-0.396220 -0.492357 0.882693
-0.225669 -0.583051 0.894267
-0.053160 -0.592769 0.942421
0.107372 -0.619018 0.889078
0.179521 -0.506288 1.022963
0.275737 -0.559114 0.897279
-0.574825 -0.242976 0.896174
-0.457371 -0.349825 0.970948
-0.310278 -0.445893 1.015228
0.359623 -0.446465 0.974552
0.602066 -0.241890 0.852693
0.489029 -0.366314 0.917612
-0.596909 -0.079387 0.931609
-0.488482 -0.187335 1.040317
0.506376 -0.212096 1.007710
0.600150 -0.089940 0.924248
-0.575201 0.088219 0.962125
0.565881 0.053632 0.981411
-0.486178 0.414194 0.870974
-0.579265 0.239385 0.891593
-0.457731 0.311508 1.001523
0.516263 0.360274 0.886890
0.559664 0.212624 0.936992
0.437550 0.285466 1.041206
-0.363564 0.559988 0.816916
-0.346272 0.467912 0.961864
-0.220793 0.575017 0.909619
0.279753 0.556808 0.897740
0.372979 0.432569 0.977551
0.200498 0.494824 1.027086
-0.072785 0.568824 0.974306
0.089557 0.602037 0.921369
-0.158464 -0.501982 1.036385
0.036859 -0.514028 1.049691
-0.359774 -0.290279 1.107686
-0.214469 -0.362616 1.146428
-0.057600 -0.420954 1.143235
0.099714 -0.377618 1.172369
0.389551 -0.304725 1.073517
0.250743 -0.394163 1.102738
-0.493581 -0.022808 1.074038
-0.373235 -0.126765 1.169451
-0.228638 -0.212999 1.227529
0.242610 -0.260481 1.198641
0.486385 -0.059622 1.078539
0.377544 -0.160263 1.156128
-0.479735 0.160216 1.060852
-0.379013 0.048478 1.179076
0.466047 0.123526 1.087076
0.366106 0.013099 1.191077
-0.317517 0.368967 1.082078
-0.355099 0.220982 1.149115
-0.203746 0.310661 1.187206
0.290333 0.353684 1.112371
0.340192 0.190405 1.172941
0.196105 0.241190 1.228527
-0.179502 0.469611 1.064321
-0.063926 0.392657 1.166465
0.025647 0.498059 1.068884
0.130244 0.394179 1.151828
-0.063402 -0.288171 1.237879
0.088556 -0.217069 1.268760
-0.241290 -0.042933 1.263902
-0.079929 -0.129823 1.298552
0.077018 -0.045532 1.312624
0.236108 -0.099747 1.258518
-0.241071 0.132460 1.248936
-0.090296 0.041542 1.310902
0.063976 0.126388 1.301500
0.223004 0.072367 1.268755
-0.096454 0.213517 1.268828
0.037852 0.287911 1.240546
3 2 1 0
3 4 2 0
3 4 0 3
3 5 4 3
3 8 7 1
3 1 7 6
3 1 6 0
3 0 6 9
3 10 0 9
3 3 0 10
3 11 5 3
3 11 10 12
3 11 3 10
3 13 11 12
3 15 14 6
3 15 6 7
3 9 6 14
3 9 14 16
3 17 10 9
3 17 9 16
3 18 12 17
3 12 10 17
3 19 13 12
3 19 12 18
3 15 20 14
3 21 16 22
3 16 14 22
3 22 14 20
3 23 16 21
3 17 16 23
3 18 23 25
3 18 25 24
3 18 17 23
3 24 19 18
3 22 26 21
3 27 23 21
3 27 21 26
3 27 25 23
3 30 29 28
3 32 30 28
3 32 28 31
3 33 32 31
3 36 35 34
3 36 34 29
3 34 2 29
3 34 1 2
3 29 2 28
3 31 28 4
3 28 2 4
3 5 31 4
3 33 31 38
3 38 31 5
3 38 5 37
3 39 38 37
3 42 41 40
3 42 40 7
3 42 7 8
3 35 42 8
3 35 8 34
3 1 34 8
3 11 37 5
3 39 37 44
3 37 13 44
3 37 11 13
3 44 13 43
3 45 44 43
3 47 46 40
3 47 40 41
3 40 15 7
3 46 15 40
3 43 19 48
3 13 19 43
3 49 45 43
3 49 43 48
3 47 50 46
3 46 20 15
3 51 20 52
3 52 20 46
3 52 46 50
3 51 22 20
3 53 24 25
3 48 19 24
3 48 24 54
3 55 48 54
3 24 53 54
3 55 49 48
3 52 56 51
3 57 26 58
3 26 51 58
3 26 22 51
3 58 51 56
3 59 27 57
3 27 26 57
3 59 25 27
3 53 25 59
3 61 53 59
3 61 59 60
3 61 54 53
3 58 62 57
3 63 59 57
3 63 57 62
3 63 60 59
3 66 65 64
3 66 64 67
3 64 29 30
3 67 64 30
3 32 67 30
3 68 67 32
3 69 68 33
3 68 32 33
3 70 69 33
3 71 69 70
3 110 73 72
3 74 72 35
3 74 35 36
3 65 74 36
3 65 36 64
3 29 64 36
3 38 70 33
3 39 70 38
3 71 70 76
3 76 70 39
3 76 39 75
3 77 76 75
3 73 78 41
3 73 41 72
3 72 41 42
3 35 72 42
3 44 75 39
3 77 75 45
3 75 44 45
3 79 77 45
3 78 80 47
3 78 47 41
3 79 45 81
3 45 49 81
3 83 50 80
3 82 50 83
3 50 47 80
3 82 52 50
3 84 55 54
3 81 55 85
3 49 55 81
3 85 55 91
3 83 86 82
3 82 56 52
3 87 56 88
3 88 82 86
3 56 82 88
3 87 58 56
3 89 61 60
3 84 54 61
3 84 61 89
3 90 84 89
3 91 84 90
3 91 55 84
3 131 92 87
3 93 62 92
3 62 87 92
3 62 58 87
3 93 63 62
3 94 63 93
3 95 60 94
3 89 60 95
3 60 63 94
3 135 90 89
3 98 97 96
3 99 98 96
3 100 98 99
3 101 100 99
3 104 103 102
3 105 102 65
3 104 102 105
3 105 65 66
3 140 105 66
3 97 66 96
3 96 66 67
3 99 96 67
3 99 67 68
3 101 99 68
3 101 68 69
3 106 101 69
3 107 106 108
3 106 71 108
3 106 69 71
3 109 107 108
3 103 110 102
3 110 74 102
3 110 72 74
3 65 102 74
3 111 108 71
3 111 71 76
3 109 108 155
3 111 76 77
3 114 113 112
3 114 112 78
3 114 78 73
3 110 114 73
3 116 77 79
3 111 77 116
3 116 79 115
3 117 116 115
3 119 118 112
3 119 112 113
3 112 80 78
3 118 80 112
3 115 79 120
3 79 81 120
3 159 117 115
3 121 115 120
3 119 122 118
3 122 123 118
3 123 83 118
3 118 83 80
3 120 81 85
3 120 85 125
3 125 85 124
3 125 121 120
3 126 86 127
3 86 123 127
3 86 83 123
3 126 88 86
3 128 91 90
3 124 85 91
3 124 128 129
3 124 91 128
3 127 130 126
3 131 87 88
3 131 126 171
3 131 88 126
3 132 93 92
3 132 171 133
3 132 92 131
3 134 94 93
3 134 93 132
3 136 95 94
3 135 95 136
3 136 94 134
3 128 90 137
3 90 135 137
3 89 95 135
3 137 129 128
3 133 138 132
3 138 134 132
3 139 134 138
3 139 136 134
3 142 141 140
3 142 140 97
3 142 97 143
3 143 97 98
3 144 143 98
3 144 98 100
3 145 144 100
3 145 100 146
3 146 100 101
3 147 145 146
3 104 148 103
3 149 148 104
3 141 149 104
3 141 104 140
3 140 104 105
3 97 140 66
3 106 146 101
3 107 146 106
3 147 146 107
3 150 147 107
3 109 150 107
3 151 150 109
3 154 153 152
3 103 152 110
3 154 152 103
3 148 154 103
3 155 108 111
3 151 109 156
3 156 109 155
3 157 156 117
3 153 158 113
3 153 113 152
3 152 113 114
3 110 152 114
3 116 155 111
3 156 155 117
3 155 116 117
3 159 157 117
3 158 160 119
3 158 119 113
3 159 115 121
3 159 121 161
3 163 122 119
3 162 122 163
3 163 119 160
3 162 123 122
3 164 125 124
3 161 164 165
3 121 164 161
3 121 125 164
3 163 166 162
3 166 167 162
3 167 127 162
3 162 127 123
3 164 124 169
3 124 129 169
3 169 129 168
3 169 165 164
3 167 130 127
3 170 130 167
3 171 126 130
3 171 130 172
3 172 130 170
3 171 132 131
3 173 135 136
3 173 137 135
3 174 173 175
3 174 137 173
3 174 129 137
3 168 129 174
3 172 133 171
3 177 133 176
3 138 133 177
3 176 133 172
3 178 139 177
3 139 138 177
3 173 136 179
3 136 139 179
3 179 139 178
3 179 175 173
3 181 180 142
3 180 141 142
3 182 142 143
3 181 142 182
3 144 182 143
3 183 182 144
3 184 144 145
3 183 144 184
3 147 184 145
3 185 184 147
3 149 186 148
3 187 186 149
3 180 149 141
3 187 149 180
3 188 185 147
3 188 147 150
3 151 188 150
3 189 188 151
3 154 190 153
3 191 190 154
3 186 191 154
3 186 154 148
3 192 151 156
3 189 151 192
3 193 192 157
3 192 156 157
3 190 158 153
3 194 158 190
3 193 157 195
3 157 159 195
3 194 196 160
3 194 160 158
3 195 159 161
3 195 161 197
3 196 198 160
3 198 163 160
3 197 161 165
3 197 165 199
3 198 166 163
3 200 166 198
3 201 167 166
3 201 166 200
3 203 168 202
3 169 168 203
3 199 165 203
3 165 169 203
3 201 170 167
3 204 170 201
3 205 170 204
3 172 170 205
3 207 174 175
3 207 175 206
3 207 168 174
3 202 168 207
3 208 176 205
3 176 172 205
3 209 176 208
3 177 176 209
3 209 178 177
3 210 178 209
3 211 178 210
3 179 178 211
3 211 175 179
3 206 175 211
3 213 212 181
3 212 180 181
3 214 213 181
3 214 181 182
3 183 214 182
3 215 214 183
3 216 215 183
3 216 183 184
3 185 216 184
3 217 216 185
3 187 218 186
3 219 218 187
3 212 219 187
3 212 187 180
3 220 217 185
3 220 185 188
3 189 220 188
3 221 220 189
3 191 222 190
3 223 222 191
3 218 223 191
3 218 191 186
3 224 221 189
3 224 189 192
3 225 224 193
3 224 192 193
3 222 226 194
3 222 194 190
3 227 193 195
3 225 193 227
3 226 228 196
3 226 196 194
3 227 195 197
3 227 197 229
3 196 230 198
3 228 230 196
3 229 197 199
3 229 199 231
3 230 200 198
3 232 200 230
3 233 201 200
3 233 200 232
3 235 203 202
3 235 202 234
3 231 199 235
3 199 203 235
3 233 204 201
3 236 204 233
3 237 205 204
3 237 204 236
3 239 207 206
3 239 206 238
3 239 202 207
3 234 202 239
3 240 208 237
3 208 205 237
3 241 209 208
3 241 208 240
3 241 210 209
3 242 210 241
3 243 211 210
3 243 210 242
3 243 206 211
3 238 206 243
3 213 244 212
3 245 244 213
3 246 245 213
3 246 213 214
3 215 246 214
3 247 246 215
3 248 247 215
3 248 215 216
3 249 248 217
3 248 216 217
3 219 250 218
3 251 250 219
3 244 251 219
3 244 219 212
3 252 249 217
3 252 217 220
3 221 252 220
3 253 252 221
3 255 254 223
3 254 222 223
3 250 255 223
3 250 223 218
3 256 253 221
3 256 221 224
3 225 256 224
3 257 256 225
3 254 258 226
3 254 226 222
3 259 225 227
3 257 225 259
3 258 260 228
3 258 228 226
3 259 227 229
3 259 229 261
3 228 262 230
3 260 262 228
3 261 229 231
3 261 231 263
3 264 232 262
3 232 230 262
3 265 233 232
3 265 232 264
3 267 235 234
3 267 234 266
3 267 231 235
3 263 231 267
3 265 236 233
3 268 236 265
3 269 237 236
3 269 236 268
3 271 239 238
3 271 238 270
3 271 234 239
3 266 234 271
3 269 240 237
3 272 240 269
3 273 241 240
3 273 240 272
3 273 242 241
3 274 242 273
3 275 243 242
3 275 242 274
3 270 238 275
3 238 243 275
3 245 276 244
3 277 276 245
3 278 245 246
3 277 245 278
3 247 278 246
3 279 278 247
3 280 279 247
3 280 247 248
3 281 280 249
3 280 248 249
3 251 282 250
3 283 282 251
3 276 283 251
3 276 251 244
3 284 249 252
3 281 249 284
3 253 284 252
3 285 284 253
3 287 286 255
3 286 254 255
3 282 255 250
3 287 255 282
3 288 285 253
3 288 253 256
3 257 288 256
3 289 288 257
3 286 290 258
3 286 258 254
3 289 257 291
3 257 259 291
3 290 292 260
3 290 260 258
3 291 259 261
3 291 261 293
3 292 294 260
3 294 262 260
3 293 263 295
3 261 263 293
3 296 264 294
3 264 262 294
3 297 264 296
3 265 264 297
3 299 267 266
3 299 266 298
3 299 263 267
3 295 263 299
3 297 268 265
3 300 268 297
3 301 269 268
3 301 268 300
3 303 270 302
3 271 270 303
3 303 266 271
3 298 266 303
3 301 272 269
3 304 272 301
3 305 272 304
3 273 272 305
3 305 274 273
3 306 274 305
3 307 275 274
3 307 274 306
3 302 270 307
3 270 275 307
3 277 308 276
3 309 277 310
3 308 277 309
3 310 277 278
3 279 310 278
3 349 310 279
3 280 311 279
3 312 311 313
3 313 311 281
3 281 311 280
3 283 314 282
3 315 314 283
3 308 315 283
3 316 315 308
3 308 283 276
3 309 316 308
3 317 312 313
3 318 313 281
3 317 313 318
3 318 281 284
3 285 318 284
3 319 318 285
3 287 324 286
3 314 320 287
3 321 320 314
3 314 287 282
3 323 319 285
3 322 319 323
3 323 285 288
3 289 323 288
3 286 324 290
3 325 324 320
3 320 324 287
3 321 325 320
3 326 322 323
3 327 289 291
3 323 289 326
3 326 289 327
3 290 328 292
3 324 328 290
3 327 291 293
3 327 293 329
3 331 292 328
3 330 292 331
3 330 294 292
3 331 332 330
3 335 334 333
3 329 293 295
3 329 295 334
3 334 295 333
3 330 296 294
3 336 297 296
3 336 296 332
3 332 296 330
3 333 299 298
3 333 298 337
3 335 333 337
3 333 295 299
3 336 300 297
3 338 300 336
3 339 301 300
3 339 300 338
3 340 339 338
3 340 341 339
3 344 343 342
3 345 303 302
3 345 302 342
3 375 345 342
3 345 298 303
3 337 298 345
3 339 304 301
3 346 305 304
3 346 304 341
3 341 304 339
3 346 306 305
3 347 306 381
3 347 307 306
3 342 347 344
3 302 307 347
3 342 302 347
3 310 348 309
3 349 348 310
3 349 279 311
3 312 349 311
3 315 321 314
3 351 350 316
3 351 316 352
3 350 315 316
3 309 352 316
3 353 352 348
3 348 352 309
3 354 353 348
3 354 348 349
3 354 349 312
3 354 312 355
3 355 312 317
3 356 355 317
3 356 317 357
3 357 317 318
3 319 357 318
3 359 358 321
3 359 321 350
3 350 321 315
3 384 359 350
3 360 356 357
3 357 319 322
3 357 322 360
3 360 322 361
3 325 362 324
3 363 362 325
3 363 325 358
3 358 325 321
3 326 361 322
3 364 361 365
3 365 361 326
3 327 365 326
3 362 366 328
3 362 328 324
3 367 366 363
3 366 362 363
3 369 364 368
3 364 365 368
3 365 327 329
3 365 329 368
3 366 331 328
3 370 332 331
3 370 331 366
3 367 370 366
3 371 334 335
3 368 334 371
3 369 368 371
3 368 329 334
3 373 372 332
3 373 332 370
3 372 336 332
3 373 374 372
3 377 376 375
3 371 335 376
3 335 337 376
3 376 337 375
3 372 338 336
3 378 340 408
3 340 338 374
3 374 338 372
3 378 341 340
3 379 341 378
3 380 379 378
3 382 381 379
3 382 379 380
3 383 343 344
3 383 344 382
3 382 344 381
3 375 342 343
3 375 343 377
3 377 343 411
3 375 337 345
3 379 346 341
3 381 306 346
3 381 346 379
3 381 344 347
3 385 384 351
3 385 352 353
3 351 352 385
3 386 385 353
3 387 386 353
3 387 353 354
3 355 387 354
3 388 387 389
3 389 387 355
3 356 389 355
3 359 390 358
3 391 390 359
3 391 359 384
3 384 350 351
3 392 391 384
3 385 392 384
3 393 388 389
3 393 389 356
3 393 356 395
3 395 356 360
3 395 360 394
3 361 394 360
3 390 396 363
3 397 396 390
3 390 363 358
3 391 397 390
3 398 395 394
3 394 361 364
3 394 399 398
3 394 364 399
3 396 367 363
3 400 367 396
3 399 369 401
3 364 369 399
3 403 370 367
3 373 370 403
3 400 403 367
3 403 404 402
3 407 406 405
3 401 369 406
3 369 371 406
3 406 371 405
3 402 373 403
3 402 374 373
3 408 374 402
3 409 408 402
3 409 402 404
3 409 410 408
3 413 412 411
3 405 376 377
3 405 377 412
3 412 377 411
3 407 405 412
3 405 371 376
3 408 340 374
3 414 380 410
3 380 378 410
3 410 378 408
3 415 382 380
3 415 380 414
3 415 383 382
3 411 415 413
3 411 383 415
3 411 343 383
3 386 416 385
3 417 416 386
3 417 386 387
3 388 417 387
3 392 418 391
3 419 418 392
3 419 392 416
3 416 392 385
3 420 419 416
3 420 416 417
3 420 417 421
3 421 417 388
3 421 388 423
3 423 388 393
3 423 393 422
3 395 422 393
3 397 424 396
3 425 424 397
3 425 418 426
3 418 397 391
3 425 397 418
3 419 426 418
3 427 423 422
3 398 422 395
3 427 422 429
3 429 422 398
3 429 398 428
3 399 428 398
3 424 430 400
3 424 400 396
3 431 424 425
3 430 424 431
3 433 428 432
3 429 428 433
3 428 399 401
3 428 401 432
3 430 403 400
3 434 404 435
3 404 403 430
3 435 404 430
3 435 430 431
3 435 436 434
3 439 438 437
3 432 406 407
3 432 407 438
3 438 407 437
3 433 432 438
3 432 401 406
3 434 409 404
3 440 410 409
3 440 409 434
3 436 440 434
3 441 440 436
3 443 442 441
3 442 440 441
3 437 412 413
3 437 443 439
3 437 413 443
3 413 442 443
3 437 407 412
3 440 414 410
3 442 415 414
3 442 414 440
3 442 413 415
3 420 444 419
3 445 444 421
3 444 420 421
3 427 445 421
3 426 446 425
3 447 426 444
3 446 426 447
3 444 426 419
3 447 444 445
3 447 445 448
3 448 445 449
3 421 423 427
3 449 445 427
3 429 449 427
3 446 450 431
3 446 431 425
3 451 446 447
3 450 446 451
3 452 451 448
3 451 447 448
3 453 448 449
3 452 448 453
3 449 429 433
3 449 433 453
3 450 435 431
3 454 436 450
3 454 450 451
3 436 435 450
3 454 451 452
3 454 452 455
3 453 438 439
3 439 455 452
3 453 439 452
3 453 433 438
3 454 441 436
3 455 443 441
3 455 441 454
3 455 439 443
